<svg width="202" height="202" viewBox="0 0 202 202" fill="none" xmlns="http://www.w3.org/2000/svg">
<g clip-path="url(#clip0_4229_112)">
<path d="M191.877 1.74275L151.6 42.0201L168.244 58.6643C170.559 60.9799 170.559 64.7339 168.244 67.0496C165.929 69.3648 162.174 69.3652 159.859 67.0496L143.214 50.405L126.301 67.3184L142.945 83.9625C145.26 86.2781 145.26 90.0322 142.945 92.3478C140.63 94.663 136.875 94.6634 134.56 92.3478L117.915 75.7033L101.002 92.6166L117.646 109.261C119.961 111.576 119.961 115.33 117.646 117.646C115.331 119.961 111.576 119.962 109.261 117.646L92.616 101.001L75.7027 117.915L92.3468 134.559C94.6624 136.875 94.6624 140.629 92.3468 142.944C90.0316 145.259 86.2771 145.26 83.9615 142.944L67.317 126.3L50.4037 143.213L67.0478 159.857C69.3634 162.173 69.3634 165.927 67.0478 168.242C64.7326 170.558 60.9781 170.558 58.6625 168.242L42.018 151.598L1.74215 191.878C-1.98228 195.602 0.659845 202 5.93461 202H196.07C199.344 202 201.999 199.345 201.999 196.071V5.9356C201.999 0.668345 195.607 -1.98682 191.877 1.74275ZM163.656 157.727C163.656 161.002 161.001 163.657 157.727 163.657H103.967C98.7027 163.657 96.0424 157.267 99.7747 153.534L153.534 99.7749C157.259 96.0501 163.656 98.693 163.656 103.968V157.727Z" fill="url(#paint0_linear_4229_112)"/>
</g>
<defs>
<linearGradient id="paint0_linear_4229_112" x1="100.999" y1="0" x2="100.999" y2="202" gradientUnits="userSpaceOnUse">
<stop stop-color="#F4CD79"/>
<stop offset="1" stop-color="#C7983F"/>
</linearGradient>
<clipPath id="clip0_4229_112">
<rect width="202" height="202" fill="white"/>
</clipPath>
</defs>
</svg>
