<svg width="90" height="44" viewBox="0 0 90 44" fill="none" xmlns="http://www.w3.org/2000/svg">
<path d="M86.4844 25.3125H12.0309L24.3644 37.5863C25.7406 38.956 25.7459 41.1819 24.3762 42.5581C23.0065 43.9344 20.7804 43.9395 19.4042 42.57L1.03436 24.2888C1.03313 24.2877 1.03225 24.2865 1.0312 24.2854C-0.341476 22.9157 -0.345871 20.6826 1.03085 19.3084C1.03208 19.3073 1.03296 19.3061 1.03401 19.305L19.4038 1.02379C20.7799 -0.345542 23.006 -0.340797 24.3758 1.03575C25.7455 2.41194 25.7402 4.63785 24.364 6.00754L12.0309 18.2813H86.4844C88.4261 18.2813 90 19.8552 90 21.7969C90 23.7386 88.4261 25.3125 86.4844 25.3125Z" fill="url(#paint0_linear_4207_14)"/>
<defs>
<linearGradient id="paint0_linear_4207_14" x1="45" y1="43.5938" x2="45" y2="5.34058e-05" gradientUnits="userSpaceOnUse">
<stop stop-color="#F4CD79"/>
<stop offset="1" stop-color="#C7983F"/>
</linearGradient>
</defs>
</svg>
