<svg width="95" height="88" viewBox="0 0 95 88" fill="none" xmlns="http://www.w3.org/2000/svg">
<g clip-path="url(#clip0_4236_35)">
<path d="M37.1053 38.2181L25.3053 43.2181L21.0053 33.8181L28.5053 33.6181C30.7053 33.6181 32.5053 31.9181 32.8053 29.7181L34.0053 19.9181C34.3053 17.5181 32.6053 15.2181 30.2053 14.9181C27.8053 14.6181 25.5053 16.3181 25.2053 18.8181L24.4053 24.8181L17.8053 25.0181C17.3053 25.0181 16.8053 25.1181 16.4053 25.3181L7.20533 28.6181C6.00529 29.0181 5.0053 29.9181 4.6053 31.1181C4.1053 32.3181 4.2053 33.6181 4.8053 34.7181L14.2053 53.6181L9.70533 81.1181C9.20533 83.9181 11.2053 86.6181 14.0053 87.1181C14.3053 87.1181 14.6053 87.2181 14.9053 87.2181C17.4053 87.2181 19.6053 85.4181 20.0053 82.8181L24.6053 54.8181L49.4053 44.3181L40.5053 40.5181C39.2053 40.0181 38.0053 39.2181 37.1053 38.2181Z" fill="url(#paint0_linear_4236_35)"/>
<path d="M12.9325 23.7865C17.4919 21.6721 19.474 16.262 17.3596 11.7026C15.2453 7.14316 9.83515 5.16102 5.27577 7.27536C0.716369 9.38976 -1.26573 14.7999 0.848619 19.3593C2.96297 23.9187 8.37315 25.9008 12.9325 23.7865Z" fill="url(#paint1_linear_4236_35)"/>
<path d="M87.8047 22.2169L78.6047 18.9169C78.1047 18.7169 77.7047 18.6169 77.2047 18.6169L70.5047 18.4169L69.7047 12.4169C69.4047 10.0169 67.1047 8.31695 64.7047 8.51695C62.3047 8.81695 60.5047 11.0169 60.8047 13.5169L62.0047 23.3169C62.3047 25.5169 64.1047 27.1169 66.3047 27.2169L73.8047 27.4169L69.5047 36.8169L46.1047 26.9169C43.4047 25.8169 40.4047 27.0169 39.3047 29.7169C38.2047 32.4169 39.4047 35.4169 42.1047 36.5169L70.3047 48.5169L74.9047 76.5169C75.3047 79.1169 77.5047 80.9169 80.0047 80.9169C80.3047 80.9169 80.6047 80.9169 80.9047 80.8169C83.7047 80.3169 85.7047 77.6169 85.2047 74.8169L80.7047 47.3169L90.1047 28.4169C90.7047 27.3169 90.7047 25.9169 90.3047 24.8169C89.9047 23.5169 89.0047 22.6169 87.8047 22.2169Z" fill="url(#paint2_linear_4236_35)"/>
<path d="M94.1214 12.9325C96.2358 8.37307 94.2537 2.96297 89.6943 0.848619C85.1349 -1.26573 79.7247 0.716369 77.6104 5.27577C75.496 9.83517 77.4781 15.2453 82.0375 17.3597C86.5969 19.474 92.0071 17.4919 94.1214 12.9325Z" fill="url(#paint3_linear_4236_35)"/>
</g>
<defs>
<linearGradient id="paint0_linear_4236_35" x1="26.8452" y1="14.8838" x2="26.8452" y2="87.2181" gradientUnits="userSpaceOnUse">
<stop stop-color="#F4CD79"/>
<stop offset="1" stop-color="#C7983F"/>
</linearGradient>
<linearGradient id="paint1_linear_4236_35" x1="5.27577" y1="7.27536" x2="12.9325" y2="23.7865" gradientUnits="userSpaceOnUse">
<stop stop-color="#F4CD79"/>
<stop offset="1" stop-color="#C7983F"/>
</linearGradient>
<linearGradient id="paint2_linear_4236_35" x1="64.7409" y1="8.50095" x2="64.7409" y2="80.9169" gradientUnits="userSpaceOnUse">
<stop stop-color="#F4CD79"/>
<stop offset="1" stop-color="#C7983F"/>
</linearGradient>
<linearGradient id="paint3_linear_4236_35" x1="77.6104" y1="5.27577" x2="94.1214" y2="12.9325" gradientUnits="userSpaceOnUse">
<stop stop-color="#F4CD79"/>
<stop offset="1" stop-color="#C7983F"/>
</linearGradient>
<clipPath id="clip0_4236_35">
<rect width="94.97" height="87.22" fill="white"/>
</clipPath>
</defs>
</svg>
