<svg width="81" height="95" viewBox="0 0 81 95" fill="none" xmlns="http://www.w3.org/2000/svg">
<path d="M78.4053 14.3009C77.2891 14.3009 76.3841 15.206 76.3841 16.3222V90.9574H9.17662C6.34616 90.9574 4.0428 88.6541 4.04255 85.8236V85.8236C4.04255 84.4492 4.57816 83.1654 5.54839 82.1952C6.50852 81.2351 7.8021 80.6994 9.17655 80.6994H68.6122C69.7239 80.6994 70.6335 79.7899 70.6335 78.6782V2.02128C70.6335 0.909538 69.7239 0 68.6122 0H9.17655C4.11331 0 0 4.11331 0 9.17655V85.8227V85.8227C0 90.8828 4.11651 95 9.17662 95H78.4053C79.5216 95 80.4266 94.095 80.4266 92.9787V16.3222C80.4266 15.206 79.5216 14.3009 78.4053 14.3009Z" fill="url(#paint0_linear_4238_63)"/>
<path d="M68.6148 83.807H12.326C11.2097 83.807 10.3047 84.712 10.3047 85.8283C10.3047 86.9445 11.2097 87.8495 12.326 87.8495H68.6148C69.731 87.8495 70.636 86.9445 70.636 85.8283C70.636 84.712 69.731 83.807 68.6148 83.807Z" fill="url(#paint1_linear_4238_63)"/>
<defs>
<linearGradient id="paint0_linear_4238_63" x1="40.2133" y1="0" x2="40.2133" y2="95" gradientUnits="userSpaceOnUse">
<stop stop-color="#F4CD79"/>
<stop offset="1" stop-color="#C7983F"/>
</linearGradient>
<linearGradient id="paint1_linear_4238_63" x1="40.2133" y1="0" x2="40.2133" y2="95" gradientUnits="userSpaceOnUse">
<stop stop-color="#F4CD79"/>
<stop offset="1" stop-color="#C7983F"/>
</linearGradient>
</defs>
</svg>
