<svg width="28" height="28" viewBox="0 0 28 28" fill="none" xmlns="http://www.w3.org/2000/svg">
<path d="M17.75 25.75V26.75C17.7492 27.015 17.6436 27.2689 17.4563 27.4563C17.2689 27.6436 17.015 27.7492 16.75 27.75H11.25C10.985 27.7492 10.7311 27.6436 10.5437 27.4563C10.3564 27.2689 10.2508 27.015 10.25 26.75V25.75H17.75Z" fill="url(#paint0_linear_4239_89)"/>
<path d="M14 4C13.7349 3.99966 13.4807 3.89419 13.2933 3.70673C13.1058 3.51927 13.0003 3.26511 13 3V1C13 0.734784 13.1054 0.48043 13.2929 0.292893C13.4804 0.105357 13.7348 0 14 0C14.2652 0 14.5196 0.105357 14.7071 0.292893C14.8946 0.48043 15 0.734784 15 1V3C14.9997 3.26511 14.8942 3.51927 14.7067 3.70673C14.5193 3.89419 14.2651 3.99966 14 4Z" fill="url(#paint1_linear_4239_89)"/>
<path d="M21.7791 7.22154C21.5813 7.2215 21.388 7.16282 21.2236 7.05294C21.0592 6.94306 20.9311 6.78689 20.8554 6.60419C20.7797 6.42149 20.7599 6.22046 20.7985 6.02651C20.8371 5.83255 20.9323 5.65439 21.0721 5.51454L22.4861 4.10048C22.579 4.00763 22.6892 3.93398 22.8105 3.88373C22.9318 3.83348 23.0619 3.80762 23.1932 3.80762C23.3245 3.80762 23.4545 3.83348 23.5758 3.88373C23.6971 3.93398 23.8074 4.00763 23.9002 4.10048C23.9931 4.19333 24.0667 4.30355 24.117 4.42487C24.1672 4.54618 24.1931 4.6762 24.1931 4.80751C24.1931 4.93882 24.1672 5.06884 24.117 5.19015C24.0667 5.31146 23.9931 5.42169 23.9002 5.51454L22.4861 6.92857C22.3935 7.02174 22.2833 7.0956 22.162 7.14589C22.0406 7.19618 21.9105 7.22189 21.7791 7.22154Z" fill="url(#paint2_linear_4239_89)"/>
<path d="M25 15C24.7348 15 24.4804 14.8946 24.2929 14.7071C24.1054 14.5196 24 14.2652 24 14C24 13.7348 24.1054 13.4804 24.2929 13.2929C24.4804 13.1054 24.7348 13 25 13H27C27.2652 13 27.5196 13.1054 27.7071 13.2929C27.8946 13.4804 28 13.7348 28 14C28 14.2652 27.8946 14.5196 27.7071 14.7071C27.5196 14.8946 27.2652 15 27 15H25Z" fill="url(#paint3_linear_4239_89)"/>
<path d="M6.22254 7.22157C6.09118 7.22192 5.96105 7.1962 5.83969 7.1459C5.71833 7.09561 5.60816 7.02174 5.51554 6.92857L4.10146 5.51454C4.00861 5.42169 3.93495 5.31146 3.88471 5.19015C3.83446 5.06884 3.80859 4.93882 3.80859 4.80751C3.80859 4.6762 3.83446 4.54618 3.88471 4.42487C3.93495 4.30355 4.00861 4.19333 4.10145 4.10048C4.1943 4.00763 4.30453 3.93398 4.42584 3.88373C4.54716 3.83348 4.67718 3.80762 4.80849 3.80762C4.93979 3.80762 5.06981 3.83348 5.19113 3.88373C5.31244 3.93398 5.42267 4.00763 5.51551 4.10048L6.92957 5.51454C7.06938 5.65439 7.16459 5.83255 7.20316 6.02651C7.24173 6.22046 7.22192 6.42149 7.14625 6.60419C7.07058 6.78689 6.94244 6.94306 6.77803 7.05294C6.61362 7.16282 6.42029 7.22153 6.22254 7.22157Z" fill="url(#paint4_linear_4239_89)"/>
<path d="M1 15C0.734784 15 0.48043 14.8946 0.292893 14.7071C0.105357 14.5196 0 14.2652 0 14C0 13.7348 0.105357 13.4804 0.292893 13.2929C0.48043 13.1054 0.734784 13 1 13H3C3.26522 13 3.51957 13.1054 3.70711 13.2929C3.89464 13.4804 4 13.7348 4 14C4 14.2652 3.89464 14.5196 3.70711 14.7071C3.51957 14.8946 3.26522 15 3 15H1Z" fill="url(#paint5_linear_4239_89)"/>
<path d="M19.8339 7.47867C18.9557 6.6912 17.9273 6.0895 16.8105 5.70976C15.6937 5.33003 14.5116 5.18011 13.3354 5.26902C12.1592 5.35794 11.0131 5.68384 9.96611 6.22714C8.9191 6.77044 7.9928 7.5199 7.24293 8.43045C6.49306 9.34099 5.93511 10.3938 5.60265 11.5256C5.27019 12.6573 5.17008 13.8446 5.30834 15.0161C5.44661 16.1875 5.8204 17.3189 6.40722 18.3421C6.99404 19.3654 7.78177 20.2594 8.72302 20.9703C8.88337 21.0866 9.01446 21.2386 9.10591 21.4143C9.19736 21.59 9.24667 21.7845 9.24992 21.9826V23.7497C9.24992 24.0149 9.35528 24.2692 9.54281 24.4568C9.73035 24.6443 9.9847 24.7497 10.2499 24.7497H17.7499C18.0151 24.7497 18.2695 24.6443 18.457 24.4568C18.6446 24.2692 18.7499 24.0149 18.7499 23.7497V21.9826C18.7531 21.785 18.8021 21.591 18.8932 21.4157C18.9843 21.2404 19.115 21.0887 19.2749 20.9726C20.3056 20.1946 21.1512 19.1979 21.7507 18.0542C22.3503 16.9104 22.689 15.648 22.7425 14.3577C22.7959 13.0674 22.5628 11.7813 22.0599 10.5919C21.557 9.40247 20.7968 8.33924 19.8339 7.47867ZM17.7119 15.2365L17.3447 16.339C17.1508 16.9178 16.8096 17.4361 16.3547 17.8429C15.8997 18.2498 15.3466 18.5312 14.7499 18.6594V20.9997C14.7499 21.1986 14.6709 21.3894 14.5303 21.53C14.3896 21.6707 14.1988 21.7497 13.9999 21.7497C13.801 21.7497 13.6102 21.6707 13.4696 21.53C13.3289 21.3894 13.2499 21.1986 13.2499 20.9997V18.6595C12.6532 18.5315 12.1002 18.2501 11.6453 17.8432C11.1905 17.4363 10.8496 16.9179 10.6562 16.339L10.2885 15.237C10.2562 15.1433 10.2428 15.0441 10.2491 14.9452C10.2553 14.8462 10.2811 14.7495 10.325 14.6606C10.3689 14.5718 10.4299 14.4925 10.5046 14.4273C10.5793 14.3622 10.6662 14.3125 10.7602 14.2811C10.8543 14.2497 10.9536 14.2373 11.0524 14.2446C11.1513 14.2518 11.2477 14.2786 11.3362 14.3234C11.4246 14.3681 11.5033 14.43 11.5677 14.5053C11.6321 14.5807 11.6809 14.668 11.7114 14.7624L12.079 15.8649C12.2133 16.2681 12.4712 16.6189 12.8159 16.8674C13.1607 17.1159 13.5749 17.2497 13.9999 17.2497C14.4249 17.2497 14.8392 17.1159 15.1839 16.8674C15.5287 16.6189 15.7865 16.2681 15.9208 15.8649L16.288 14.7629C16.3513 14.5746 16.4866 14.4192 16.6643 14.3305C16.842 14.2419 17.0476 14.2273 17.236 14.29C17.4244 14.3527 17.5803 14.4875 17.6695 14.6649C17.7587 14.8423 17.7739 15.0479 17.7119 15.2365Z" fill="url(#paint6_linear_4239_89)"/>
<defs>
<linearGradient id="paint0_linear_4239_89" x1="14" y1="25.75" x2="14" y2="27.75" gradientUnits="userSpaceOnUse">
<stop stop-color="#F4CD79"/>
<stop offset="1" stop-color="#C7983F"/>
</linearGradient>
<linearGradient id="paint1_linear_4239_89" x1="14" y1="0" x2="14" y2="4" gradientUnits="userSpaceOnUse">
<stop stop-color="#F4CD79"/>
<stop offset="1" stop-color="#C7983F"/>
</linearGradient>
<linearGradient id="paint2_linear_4239_89" x1="22.4862" y1="3.80762" x2="22.4862" y2="7.22154" gradientUnits="userSpaceOnUse">
<stop stop-color="#F4CD79"/>
<stop offset="1" stop-color="#C7983F"/>
</linearGradient>
<linearGradient id="paint3_linear_4239_89" x1="26" y1="13" x2="26" y2="15" gradientUnits="userSpaceOnUse">
<stop stop-color="#F4CD79"/>
<stop offset="1" stop-color="#C7983F"/>
</linearGradient>
<linearGradient id="paint4_linear_4239_89" x1="5.51548" y1="3.80762" x2="5.51548" y2="7.22157" gradientUnits="userSpaceOnUse">
<stop stop-color="#F4CD79"/>
<stop offset="1" stop-color="#C7983F"/>
</linearGradient>
<linearGradient id="paint5_linear_4239_89" x1="2" y1="13" x2="2" y2="15" gradientUnits="userSpaceOnUse">
<stop stop-color="#F4CD79"/>
<stop offset="1" stop-color="#C7983F"/>
</linearGradient>
<linearGradient id="paint6_linear_4239_89" x1="13.999" y1="5.24414" x2="13.999" y2="24.7497" gradientUnits="userSpaceOnUse">
<stop stop-color="#F4CD79"/>
<stop offset="1" stop-color="#C7983F"/>
</linearGradient>
</defs>
</svg>
