<svg width="329" height="329" viewBox="0 0 329 329" fill="none" xmlns="http://www.w3.org/2000/svg">
<g filter="url(#filter0_d_4185_664)">
<g clip-path="url(#clip0_4185_664)">
<path d="M315.595 23.1678H274.402C274.552 18.6053 274.635 14.0158 274.635 9.40428C274.635 4.20988 270.423 0 265.231 0H63.7686C58.5767 0 54.3643 4.20988 54.3643 9.40428C54.3643 14.0158 54.4476 18.6053 54.597 23.1678H13.4043C8.20988 23.1678 4 27.3777 4 32.5721C4 74.7101 15.0133 114.465 35.0096 144.517C54.7758 174.226 81.1053 191.267 109.548 192.925C115.997 199.941 122.812 205.662 129.912 210.026V251.824H114.135C95.0623 251.824 79.5477 267.341 79.5477 286.412V302.188H78.8791C73.6847 302.188 69.4748 306.401 69.4748 311.593C69.4748 316.787 73.6847 320.997 78.8791 320.997H250.12C255.315 320.997 259.525 316.787 259.525 311.593C259.525 306.401 255.315 302.188 250.12 302.188H249.452V286.412C249.452 267.341 233.937 251.824 214.864 251.824H199.087V210.026C206.187 205.665 213.005 199.941 219.453 192.925C247.894 191.267 274.224 174.226 293.992 144.517C313.989 114.465 324.999 74.7101 324.999 32.5721C324.999 27.3777 320.789 23.1678 315.595 23.1678ZM50.6687 134.099C34.1745 109.312 24.4837 76.8922 23.0069 41.9764H55.6476C59.0395 84.8981 69.1148 124.572 84.8621 156.064C87.3699 161.08 89.9928 165.819 92.7137 170.281C77.0717 164.374 62.5955 152.026 50.6687 134.099ZM230.643 286.412V302.191H98.3563V286.412C98.3563 277.713 105.434 270.633 114.135 270.633H214.864C223.565 270.633 230.643 277.713 230.643 286.412ZM180.279 251.824H148.721V218.199C153.89 219.561 159.158 220.268 164.5 220.268C169.841 220.268 175.109 219.561 180.279 218.199V251.824ZM186.103 195.824C185.679 195.998 185.272 196.209 184.883 196.442C178.236 199.748 171.406 201.46 164.5 201.46C157.596 201.46 150.768 199.748 144.124 196.447C143.729 196.209 143.32 195.998 142.892 195.82C135.518 191.921 128.384 186.033 121.637 178.297C121.282 177.79 120.882 177.322 120.439 176.896C113.741 168.944 107.44 159.163 101.684 147.652C84.4017 113.089 74.4194 67.6422 73.2831 18.8086H255.716C254.577 67.6422 244.595 113.091 227.315 147.652C221.56 159.163 215.258 168.944 208.563 176.896C208.117 177.322 207.713 177.792 207.36 178.299C200.613 186.038 193.477 191.923 186.103 195.824ZM278.331 134.099C266.404 152.026 251.928 164.374 236.286 170.281C239.007 165.819 241.629 161.08 244.137 156.064C259.885 124.572 269.957 84.8981 273.352 41.9764H305.992C304.516 76.8922 294.825 109.312 278.331 134.099Z" fill="#DBDADB"/>
</g>
</g>
<defs>
<filter id="filter0_d_4185_664" x="0" y="0" width="329" height="329" filterUnits="userSpaceOnUse" color-interpolation-filters="sRGB">
<feFlood flood-opacity="0" result="BackgroundImageFix"/>
<feColorMatrix in="SourceAlpha" type="matrix" values="0 0 0 0 0 0 0 0 0 0 0 0 0 0 0 0 0 0 127 0" result="hardAlpha"/>
<feOffset dy="4"/>
<feGaussianBlur stdDeviation="2"/>
<feComposite in2="hardAlpha" operator="out"/>
<feColorMatrix type="matrix" values="0 0 0 0 0 0 0 0 0 0 0 0 0 0 0 0 0 0 0.25 0"/>
<feBlend mode="normal" in2="BackgroundImageFix" result="effect1_dropShadow_4185_664"/>
<feBlend mode="normal" in="SourceGraphic" in2="effect1_dropShadow_4185_664" result="shape"/>
</filter>
<clipPath id="clip0_4185_664">
<rect width="321" height="321" fill="white" transform="translate(4)"/>
</clipPath>
</defs>
</svg>
