<svg width="321" height="321" viewBox="0 0 321 321" fill="none" xmlns="http://www.w3.org/2000/svg">
<path d="M311.595 23.1678H270.402C270.552 18.6053 270.635 14.0158 270.635 9.40428C270.635 4.20988 266.423 0 261.231 0H59.7686C54.5767 0 50.3643 4.20988 50.3643 9.40428C50.3643 14.0158 50.4476 18.6053 50.597 23.1678H9.40428C4.20988 23.1678 0 27.3777 0 32.5721C0 74.7101 11.0133 114.465 31.0096 144.517C50.7758 174.226 77.1053 191.267 105.548 192.925C111.997 199.941 118.812 205.662 125.912 210.026V251.824H110.135C91.0623 251.824 75.5477 267.341 75.5477 286.412V302.188H74.8791C69.6847 302.188 65.4748 306.401 65.4748 311.593C65.4748 316.787 69.6847 320.997 74.8791 320.997H246.12C251.315 320.997 255.525 316.787 255.525 311.593C255.525 306.401 251.315 302.188 246.12 302.188H245.452V286.412C245.452 267.341 229.937 251.824 210.864 251.824H195.087V210.026C202.187 205.665 209.005 199.941 215.453 192.925C243.894 191.267 270.224 174.226 289.992 144.517C309.989 114.465 320.999 74.7101 320.999 32.5721C320.999 27.3777 316.789 23.1678 311.595 23.1678ZM46.6687 134.099C30.1745 109.312 20.4837 76.8922 19.0069 41.9764H51.6476C55.0395 84.8981 65.1148 124.572 80.8621 156.064C83.3699 161.08 85.9928 165.819 88.7137 170.281C73.0717 164.374 58.5955 152.026 46.6687 134.099ZM226.643 286.412V302.191H94.3563V286.412C94.3563 277.713 101.434 270.633 110.135 270.633H210.864C219.565 270.633 226.643 277.713 226.643 286.412ZM176.279 251.824H144.721V218.199C149.89 219.56 155.158 220.268 160.5 220.268C165.841 220.268 171.109 219.56 176.279 218.199V251.824ZM182.103 195.824C181.679 195.998 181.272 196.209 180.883 196.442C174.236 199.748 167.406 201.46 160.5 201.46C153.596 201.46 146.768 199.748 140.124 196.447C139.729 196.209 139.32 195.998 138.892 195.82C131.518 191.921 124.384 186.033 117.637 178.297C117.282 177.79 116.882 177.322 116.439 176.896C109.741 168.944 103.44 159.163 97.6845 147.652C80.4017 113.089 70.4194 67.6422 69.2831 18.8086H251.716C250.577 67.6422 240.595 113.091 223.315 147.652C217.56 159.163 211.258 168.944 204.563 176.896C204.117 177.322 203.713 177.792 203.36 178.299C196.613 186.038 189.477 191.923 182.103 195.824ZM274.331 134.099C262.404 152.026 247.928 164.374 232.286 170.281C235.007 165.819 237.629 161.08 240.137 156.064C255.885 124.572 265.957 84.8981 269.352 41.9764H301.992C300.516 76.8922 290.825 109.312 274.331 134.099Z" fill="url(#paint0_linear_4185_672)"/>
<path d="M65 10.9996H260L228 176L161.5 215L79 152L65 10.9996Z" fill="url(#paint1_linear_4185_672)"/>
<defs>
<linearGradient id="paint0_linear_4185_672" x1="160.5" y1="0" x2="160.5" y2="320.997" gradientUnits="userSpaceOnUse">
<stop stop-color="#F4CD79"/>
<stop offset="1" stop-color="#C7983F"/>
</linearGradient>
<linearGradient id="paint1_linear_4185_672" x1="160.5" y1="0" x2="160.5" y2="320.997" gradientUnits="userSpaceOnUse">
<stop stop-color="#F4CD79"/>
<stop offset="1" stop-color="#C7983F"/>
</linearGradient>
</defs>
</svg>
