<svg width="100" height="100" viewBox="0 0 100 100" fill="none" xmlns="http://www.w3.org/2000/svg">
<path d="M96.3286 38.2031L60.606 8.28125C54.4732 3.14453 45.5279 3.14453 39.395 8.28125L3.67239 38.2031C-0.663552 41.8359 -1.22996 48.3008 2.40285 52.6172C4.19973 54.7656 6.79739 56.0742 9.57082 56.25V85.3516C9.57082 90.9766 14.1411 95.5469 19.7857 95.5664H41.7388V70.3711C41.7388 65.8203 45.4302 62.1289 49.981 62.1289C54.5318 62.1289 58.2232 65.8203 58.2232 70.3711V95.5859H80.1958C85.8208 95.5859 90.3911 91.0156 90.4107 85.3711V56.2695C96.0552 55.8984 100.333 51.0156 99.9614 45.3711C99.7661 42.5977 98.4575 40 96.3286 38.2031ZM89.7466 52.3828H86.5044V85.3711C86.5044 88.8477 83.6919 91.6797 80.1958 91.6797H62.1294V70.3711C62.1294 63.6523 56.6802 58.2227 49.981 58.2227C43.2622 58.2227 37.8325 63.6719 37.8325 70.3711V91.6797H19.7857C16.3091 91.6797 13.4771 88.8672 13.4771 85.3906V52.3828H10.2544C4.33645 52.3828 1.66067 45 6.19192 41.1914L41.9146 11.2695C46.6021 7.34375 53.4185 7.34375 58.106 11.2695L93.8091 41.2109C98.3404 45 95.6646 52.3828 89.7466 52.3828Z" fill="#DBDADB"/>
</svg>
