<svg width="388" height="433" viewBox="0 0 388 433" fill="none" xmlns="http://www.w3.org/2000/svg">
<g clip-path="url(#clip0_4236_41)">
<path d="M374.118 0.202976C367.482 1.48845 359.865 6.08907 352.958 13.0238C350.554 15.4595 347.812 18.0642 346.864 18.8084C342.259 22.5634 334.946 26.7919 328.445 29.4643C320.828 32.6103 315.749 34.2002 298.855 38.7332C297.196 39.173 295.672 39.6804 295.469 39.8495C274.241 56.4591 265.946 64.2058 261.883 71.2082C259.174 75.8765 255.179 79.124 244.717 85.0777C242.144 86.5323 238.759 88.7312 237.167 89.949C232.326 93.6701 231.276 94.3466 226.164 96.7823C223.455 98.1016 220.103 99.7253 218.715 100.402C212.993 103.176 210.149 105.476 205.748 110.889C200.906 116.775 193.661 123.067 180.457 132.775C172.06 138.966 166.406 143.431 163.021 146.442C158.687 150.366 156.046 151.584 151.916 151.618C147.853 151.618 145.144 150.197 143.858 147.321C143.045 145.529 143.045 142.349 143.858 140.556C144.738 138.594 147.345 136.395 151.306 134.264C157.197 131.118 159.263 129.866 165.865 125.435C182.184 114.508 194.271 105.036 206.967 93.2303C211.978 88.562 211.978 88.562 216.616 86.4309C219.155 85.2807 226.705 82.1685 233.341 79.4961L245.462 74.6925L245.97 72.9673C248.34 65.1191 244.92 58.3197 237.37 55.7826C234.052 54.6324 230.633 54.7001 228.195 55.8841C225.487 57.2034 224.234 58.3874 220.036 63.3601C216.176 67.9945 214.111 69.7874 211.978 70.3625C211.267 70.5316 208.287 70.667 205.308 70.5993C200.06 70.5316 199.857 70.5655 197.724 71.4788C188.549 75.4706 182.014 76.7222 164.443 77.8385L158.078 78.2106L154.793 80.105C145.652 85.3822 132.956 89.4754 118.837 91.8095C110.813 93.1288 107.868 93.3656 99.776 93.3656C90.9393 93.3656 89.2126 93.6024 86.0301 95.1923C85.1498 95.6659 83.5924 96.7823 82.5767 97.6618C81.561 98.5752 79.9358 99.9959 78.9201 100.808C77.9383 101.62 74.8573 104.901 72.1149 108.081C66.4946 114.576 65.6482 115.388 62.8381 117.35C60.3327 119.075 59.0461 119.143 56.8116 117.756C54.1369 116.064 52.5794 113.223 50.2095 105.713C48.652 100.808 47.5009 97.7295 45.4356 93.095C43.2011 88.1223 42.2192 86.4647 40.1878 84.3335C38.0548 82.1009 35.7187 80.9507 32.2653 80.5448C30.8095 80.3756 28.6426 80.0373 27.4238 79.8344C26.2049 79.5976 24.1058 79.5299 22.6838 79.6314C12.1205 80.4771 3.65623 86.8706 1.28625 95.8351C-0.948303 104.326 -0.135738 110.956 4.16409 119.244C5.89079 122.559 5.92465 122.661 5.61993 124.454C5.41679 125.638 5.45065 126.923 5.68765 128.31C6.83878 134.433 11.5449 139.034 17.2667 139.575C20.991 139.947 23.8688 141.808 28.8458 147.051C30.4032 148.675 33.044 151.449 34.7369 153.241L37.784 156.455L38.3596 159.669C39.2398 164.675 39.5445 168.464 40.1201 180.304C40.9327 197.116 41.5082 201.176 44.4877 210.208C46.6883 216.838 47.2978 218.259 49.1938 221.168C52.5456 226.344 57.5903 231.148 65.5466 236.763C67.7812 238.353 70.659 240.383 71.9456 241.33C78.243 245.829 81.8318 247.791 86.3348 249.246C88.8402 250.024 89.7543 250.159 93.4447 250.159C96.0856 250.159 97.9477 249.99 98.3878 249.753C98.7941 249.516 100.25 248.4 101.604 247.25C107.8 242.074 111.423 240.518 117.415 240.518C122.866 240.518 128.453 238.421 131.195 235.376C133.193 233.143 133.904 231.012 133.599 227.765C133.362 224.991 133.701 223.976 135.36 222.386C137.256 220.559 142.706 218.8 143.35 219.815C143.756 220.458 144.128 247.453 143.891 258.785L143.654 269.779L142.469 271.64C139.118 276.849 135.969 284.867 134.919 290.753C134.005 296.098 133.599 310.576 134.039 324.581C134.479 337.943 135.224 353.335 135.8 359.424C136.341 365.344 136.612 390.377 136.172 394.131C134.818 405.329 127.606 413.481 114.334 418.758C111.457 419.909 106.209 421.465 100.589 422.852C95.984 424.002 91.244 425.896 89.2803 427.385C88.0276 428.332 86.7749 430.328 86.1655 432.222L85.9623 433H90.296C102.857 433 123.882 432.087 134.073 431.106C141.454 430.395 142.436 430.429 146.6 431.444C153.473 433.135 156.182 432.966 158.484 430.666C160.888 428.298 161.159 424.441 159.466 416.932C158.315 411.79 158.315 412.602 159.263 401.202C160.651 384.558 162.953 372.684 167.05 361.149C167.896 358.713 168.742 356.616 168.912 356.447C169.657 355.703 172.873 355.466 185.705 355.229C198.435 354.959 199.349 354.891 201.177 354.214C203.615 353.267 205.613 351.17 206.357 348.7C206.798 347.347 206.967 345.216 207.035 339.804C207.576 306.787 208.457 295.184 211.301 283.48C211.673 281.89 212.756 276.883 213.671 272.316C215.939 261.221 219.122 246.709 224.471 223.096C230.159 197.962 236.659 168.16 236.659 167.28C236.659 167.246 241.941 162.274 248.442 156.218C266.352 139.44 276.543 128.818 284.228 118.906C285.515 117.214 288.122 113.967 290.018 111.633C291.88 109.299 296.688 103.142 300.649 97.9324C312.973 81.7626 316.866 77.1958 325.568 68.6711C331.459 62.9203 332.136 62.1423 333.829 59.0639C335.996 55.1737 338.095 52.6704 340.058 51.6894C340.803 51.3173 342.835 49.8965 344.494 48.5772C351.434 43.1309 358.036 39.3421 363.995 37.3801L367.245 36.3314L373.069 30.9527C379.163 25.3373 381.973 22.3266 384.343 18.8423C386.307 15.9669 387.763 12.3473 387.763 10.4867C387.729 6.9686 384.885 2.53712 381.668 1.01485C380.077 0.270633 376.048 -0.169133 374.118 0.202976Z" fill="url(#paint0_linear_4236_41)"/>
</g>
<defs>
<linearGradient id="paint0_linear_4236_41" x1="193.92" y1="433" x2="193.92" y2="0.0681763" gradientUnits="userSpaceOnUse">
<stop stop-color="#F4CD79"/>
<stop offset="1" stop-color="#C7983F"/>
</linearGradient>
<clipPath id="clip0_4236_41">
<rect width="388" height="433" fill="white"/>
</clipPath>
</defs>
</svg>
