<svg width="123" height="124" viewBox="0 0 123 124" fill="none" xmlns="http://www.w3.org/2000/svg">
<path d="M122.991 3.59597C122.931 2.77007 122.593 1.99621 122.042 1.39736C121.022 0.0908727 119.202 -0.387826 117.638 0.341574L117.566 0.375632C117.512 0.400229 117.46 0.426719 117.408 0.454154L26.9738 44.7404C25.8262 45.3023 25.0573 46.4262 24.9512 47.6996C24.8452 48.973 25.4152 50.2085 26.4549 50.954L51.5822 68.9676L1.10793 117.756C-0.199755 119.02 -0.371146 121.056 0.707388 122.519C1.41379 123.48 2.5141 124 3.63808 124C4.22991 124 4.82836 123.855 5.37851 123.555L100.728 71.5447C101.825 70.9468 102.538 69.8266 102.614 68.5798C102.691 67.3319 102.121 66.1333 101.105 65.4048L77.8212 48.7138L121.881 6.47573C122.66 5.72835 123.068 4.67257 122.991 3.59597Z" fill="url(#paint0_linear_4206_10)"/>
<defs>
<linearGradient id="paint0_linear_4206_10" x1="61.5" y1="0" x2="61.5" y2="124" gradientUnits="userSpaceOnUse">
<stop stop-color="#F4CD79"/>
<stop offset="1" stop-color="#C7983F"/>
</linearGradient>
</defs>
</svg>
