<svg width="366" height="312" viewBox="0 0 366 312" fill="none" xmlns="http://www.w3.org/2000/svg">
<g clip-path="url(#clip0_4228_74)">
<path d="M174.195 272.833C171.988 254.488 156.539 242.832 133.227 242.832H65.0855C41.843 242.832 26.394 254.488 24.1869 272.833C9.28978 277.524 0.599609 288.697 0.599609 304.283C0.599609 308.146 3.7033 311.18 7.49652 311.18H190.885C194.679 311.18 197.782 308.146 197.782 304.283C197.782 288.697 189.023 277.524 174.195 272.833Z" fill="url(#paint0_linear_4228_74)"/>
<path d="M350.705 172.229L196.741 104.128L208.291 78.0149C216.619 79.1347 224.966 74.7571 228.509 66.7466C232.861 56.907 228.429 45.4443 218.652 41.12L131.294 2.48002C121.518 -1.84426 109.992 2.55998 105.64 12.3996C102.096 20.4102 104.536 29.5584 110.904 34.9391L67.8281 132.326C59.5347 131.298 51.1531 135.584 47.5822 143.658C43.2577 153.434 47.7532 164.925 57.5297 169.249L144.888 207.889C154.664 212.213 166.127 207.781 170.451 198.004C174.022 189.931 171.618 180.874 165.215 175.402L176.737 149.352L330.702 217.453C343.128 222.95 357.774 217.286 363.298 204.797C368.794 192.371 363.131 177.725 350.705 172.229Z" fill="url(#paint1_linear_4228_74)"/>
<path d="M180.707 186.425C180.132 181.648 176.109 178.612 170.038 178.612H152.293C146.24 178.612 142.217 181.648 141.643 186.425C137.763 187.647 135.5 190.556 135.5 194.615C135.5 195.621 136.308 196.411 137.296 196.411H185.054C186.041 196.411 186.85 195.621 186.85 194.615C186.85 190.556 184.569 187.647 180.707 186.425Z" fill="url(#paint2_linear_4228_74)"/>
<path d="M226.674 160.227L186.579 142.492L189.587 135.692C191.755 135.983 193.929 134.844 194.852 132.757C195.985 130.195 194.831 127.21 192.285 126.084L169.535 116.021C166.989 114.895 163.988 116.042 162.855 118.605C161.932 120.691 162.567 123.073 164.225 124.474L153.008 149.835C150.848 149.568 148.665 150.684 147.735 152.786C146.609 155.332 147.78 158.325 150.326 159.451L173.076 169.513C175.621 170.639 178.607 169.485 179.733 166.939C180.663 164.837 180.036 162.478 178.369 161.053L181.37 154.269L221.465 172.004C224.7 173.435 228.515 171.96 229.953 168.708C231.384 165.472 229.91 161.658 226.674 160.227Z" fill="url(#paint3_linear_4228_74)"/>
</g>
<defs>
<linearGradient id="paint0_linear_4228_74" x1="99.191" y1="242.832" x2="99.191" y2="311.18" gradientUnits="userSpaceOnUse">
<stop stop-color="#F4CD79"/>
<stop offset="1" stop-color="#C7983F"/>
</linearGradient>
<linearGradient id="paint1_linear_4228_74" x1="205.667" y1="0.819336" x2="205.667" y2="219.553" gradientUnits="userSpaceOnUse">
<stop stop-color="#F4CD79"/>
<stop offset="1" stop-color="#C7983F"/>
</linearGradient>
<linearGradient id="paint2_linear_4228_74" x1="161.175" y1="178.612" x2="161.175" y2="196.411" gradientUnits="userSpaceOnUse">
<stop stop-color="#F4CD79"/>
<stop offset="1" stop-color="#C7983F"/>
</linearGradient>
<linearGradient id="paint3_linear_4228_74" x1="188.903" y1="115.589" x2="188.903" y2="172.551" gradientUnits="userSpaceOnUse">
<stop stop-color="#F4CD79"/>
<stop offset="1" stop-color="#C7983F"/>
</linearGradient>
<clipPath id="clip0_4228_74">
<rect width="366" height="312" fill="white"/>
</clipPath>
</defs>
</svg>
