<svg width="338" height="443" viewBox="0 0 338 443" fill="none" xmlns="http://www.w3.org/2000/svg">
<path fill-rule="evenodd" clip-rule="evenodd" d="M321.559 31.9079C318.568 39.5009 315.606 42.0339 309.092 47.5969L294.872 59.8039L282.145 42.8429L301.498 23.4899C309.905 15.0149 314.773 11.5209 319.721 14.6079C323.079 16.6879 326.274 19.9279 321.559 31.9079ZM136.751 174.114L192.232 158.193L185.696 174.968L136.751 174.114ZM287.211 81.1649C288.523 79.8589 289.84 78.5469 291.163 77.2299L267.931 46.2579L156.505 149.52C153.167 152.609 149.805 150.962 146.402 149.82L142.388 158.533L201.55 141.566C206.85 140.041 211.654 145.308 209.652 150.448L196.513 184.202C195.484 186.834 192.96 188.495 190.136 188.471L141.53 187.623L180.185 212.279C183.176 214.184 184.171 218.074 182.458 221.178L165.785 251.375C163.556 255.389 158.029 256.039 154.941 252.641L117.778 211.82L111.451 225.508L126.371 238.625C128.073 240.117 128.904 242.373 128.593 244.607C120.666 300.382 124.262 344.132 129.328 398.013L167.384 394.208C158.485 341.768 160.746 292.195 174.14 246.772C196.207 171.91 236.366 131.869 287.211 81.1649ZM129.746 428.827C128.51 428.905 119.394 429.724 118.857 429.336C118.857 429.336 118.535 429.002 118.167 427.86C117.918 427.035 118.133 425.746 118.783 424.197L127.094 411.73L165.942 407.834C165.569 410.644 164.806 413.273 163.624 415.772C158.705 426.175 147.55 427.645 129.746 428.827ZM126.133 193.722L167.661 220.205L158.564 236.68L123.878 198.596L126.133 193.722ZM46.606 261.122L91.187 227.917C82.78 224.632 75.458 221.455 69.222 218.351L59.706 230.885C58.377 232.621 56.376 233.531 54.352 233.531C48.964 233.531 45.625 227.221 49.015 222.76L57.388 211.758C51.966 208.304 47.94 204.939 45.283 201.638C42.948 198.76 43.406 194.537 46.284 192.207C49.167 189.872 53.391 190.324 55.715 193.202C58.847 197.075 68.832 205.183 100.539 217.124L133.591 145.552L105.565 136.206C100.546 134.537 99.36 128.001 103.417 124.666L177.675 63.5079C178.981 62.4389 179.614 61.2179 179.756 59.5329C179.966 57.0419 178.993 55.9969 177.568 54.3539C175.629 52.1189 172.314 51.7239 169.907 53.4149L127.124 83.3579C125.888 84.2139 88.886 101.125 84.211 103.282C62.336 113.374 51.639 119.401 40.981 134.729C23.358 160.098 23.239 165.379 27.689 199.109C31.992 231.681 39.415 255.297 44.119 259.317C45.283 260.308 46.097 260.85 46.606 261.122ZM13.423 81.7639C13.423 68.9009 23.888 58.4359 36.757 58.4359C49.619 58.4359 60.09 68.9009 60.09 81.7639C60.09 94.6319 49.619 105.097 36.757 105.097C23.888 105.098 13.423 94.6319 13.423 81.7639ZM326.817 3.2089C311.919 -6.0631 298.943 7.0079 291.972 14.0419L274.004 32.0039C271.543 29.0439 267.106 28.7229 264.274 31.3539L150.298 136.974L121.311 127.312L186.206 73.8659C194.567 66.9819 195.58 54.6509 188.496 46.4729L187.705 45.5569C181.231 38.1169 170.286 36.7649 162.206 42.4189L119.925 72.0169L78.584 91.0989C76.023 92.2809 73.569 93.4229 71.211 94.5589C80.064 70.7019 62.423 45.0139 36.756 45.0139C16.492 45.0139 0 61.5009 0 81.7639C0 102.005 16.447 118.475 36.665 118.52C34.386 121.093 32.159 123.925 29.965 127.074C9.47 156.559 9.77501 165.922 14.377 200.863C15.643 210.407 22.569 258.566 35.392 269.523C41.747 274.951 48.313 276.587 53.558 272.672L102.922 235.888L114.806 246.325C107.111 303.406 111.125 348.004 116.366 403.621C116.268 404.01 107.473 416.601 106.777 418.157C104.532 423.07 104.046 427.69 105.363 431.868C109.616 445.399 120.844 442.874 130.636 442.215C147.733 441.079 167.115 439.795 175.754 421.505C178.117 416.513 179.395 411.068 179.61 405.267C181.43 403.694 182.306 401.308 181.854 398.923C171.881 345.918 173.616 296.006 187.01 250.566C209.309 174.911 252.432 134.836 304.769 82.6069C307.132 80.2439 307.392 76.5059 305.385 73.8319L302.937 70.5579L317.812 57.7969C324.789 51.8319 329.826 47.5179 334.044 36.8209C340.149 21.3069 337.712 9.9999 326.817 3.2089Z" fill="#DBDADB"/>
</svg>
