<svg width="305" height="400" viewBox="0 0 305 400" fill="none" xmlns="http://www.w3.org/2000/svg">
<path fill-rule="evenodd" clip-rule="evenodd" d="M0 65.5279C0 90.7519 30.634 103.442 48.47 85.6059C66.306 67.7699 53.615 37.1349 28.393 37.1349C12.71 37.1349 0 49.8449 0 65.5279ZM119.811 161.412L117.176 167.117L119.054 161.594C119.164 161.271 119.434 161.054 119.773 161.016L171.168 155.272C171.494 155.236 171.755 155.035 171.874 154.729L177.37 140.614C177.49 140.304 177.431 139.976 177.209 139.728C176.987 139.481 176.667 139.385 176.346 139.47L125.192 153.103C124.862 153.191 124.532 153.087 124.312 152.825C124.092 152.563 124.046 152.22 124.19 151.91L129.983 139.388L129.985 139.387L133.549 131.671C133.735 131.268 134.193 131.073 134.612 131.219C137.667 132.28 140.623 133.416 143.576 130.673L143.585 130.683L250.086 31.9869C250.271 31.8149 250.497 31.7389 250.748 31.7609C251 31.7839 251.208 31.8999 251.359 32.1019L272.696 60.5499C272.955 60.8949 272.921 61.3699 272.616 61.6749C222.567 111.74 182.372 150.29 160.564 224.27C147.064 270.064 145.918 317.489 153.914 365.194C153.955 365.437 153.899 365.663 153.749 365.859C153.599 366.055 153.397 366.168 153.151 366.192L118.284 369.679C118.047 369.703 117.835 369.638 117.651 369.487C117.467 369.336 117.363 369.14 117.341 368.903C112.375 315.79 109.185 275.167 116.722 222.177C117.058 219.815 116.067 217.57 114.317 216.196C114.304 216.186 114.293 216.176 114.28 216.165L100.705 204.238C100.414 203.983 100.33 203.582 100.492 203.231L111.644 179.088C111.769 178.818 112 178.644 112.294 178.598C112.588 178.553 112.861 178.649 113.061 178.869L144.757 213.679C144.95 213.891 145.209 213.988 145.494 213.954C145.778 213.921 146.008 213.766 146.147 213.515L153.952 199.384C154.172 198.986 154.045 198.487 153.661 198.243L115.003 173.591C114.638 173.358 114.503 172.898 114.685 172.505L119.811 161.412ZM151.591 379.284L115.721 382.871C115.456 382.898 115.238 383.028 115.091 383.25L107.268 394.985C107.247 395.017 107.231 395.045 107.214 395.079C106.822 395.866 106.443 397.622 106.708 398.465C107.36 400.546 110.586 399.906 113.498 399.691C131.41 398.368 149.378 398.851 152.527 380.284C152.574 380.011 152.497 379.756 152.307 379.553C152.117 379.35 151.868 379.256 151.591 379.284ZM264.882 28.6999L276.127 43.6929C276.275 43.8899 276.476 44.0049 276.722 44.0319C276.967 44.0589 277.188 43.9909 277.376 43.8299L290.386 32.6789C296.133 27.7629 299.496 24.8869 302.367 17.5859C304.783 11.4419 306.737 4.73089 300.606 0.911885C294.135 -3.11911 285.208 7.32989 281.988 10.5499L264.962 27.5759C264.657 27.8799 264.623 28.3549 264.882 28.6999ZM49.066 99.5519C55.585 94.9999 63.587 91.0359 74.036 86.2129L114.323 67.6189L114.318 67.6079C115.666 66.9849 151.967 41.3779 156.456 38.2349C157.62 37.4199 159.007 37.1109 160.345 37.2759C162.479 37.5379 163.389 38.6019 164.622 40.0209C166.685 42.3959 167.179 51.5479 164.779 53.6289L132.057 82.0069C132.022 82.0369 131.99 82.0609 131.95 82.0859L92.588 106.778C92.553 106.8 92.524 106.821 92.492 106.848C88.689 110.043 89.781 116.277 94.606 117.878L120.664 126.564C120.905 126.644 121.081 126.806 121.182 127.039C121.283 127.272 121.28 127.511 121.173 127.742L90.091 195.031C89.901 195.442 89.429 195.635 89.006 195.475C77.898 191.268 57.202 182.832 48.571 174.803C48.295 174.546 47.904 174.497 47.573 174.678C47.242 174.858 47.072 175.214 47.138 175.584L51.545 200.274C51.596 200.56 51.768 200.782 52.031 200.904C52.294 201.026 52.575 201.012 52.826 200.866L59.205 197.135C59.461 196.985 59.751 196.974 60.018 197.105C66.348 200.208 72.798 202.971 79.353 205.552C79.651 205.67 79.848 205.921 79.891 206.239C79.933 206.557 79.809 206.851 79.552 207.043L38.333 237.743C38.041 237.961 37.664 237.975 37.356 237.779C36.729 237.379 36.069 236.856 35.468 236.342C32.996 234.231 30.266 227.455 27.647 218.443C24.271 206.822 21.453 192.083 19.651 178.419C15.524 147.12 14.971 141.63 32.453 116.477C37.579 109.105 42.757 103.957 49.066 99.5519Z" fill="url(#paint0_linear_4166_50)"/>
<defs>
<linearGradient id="paint0_linear_4166_50" x1="152.346" y1="0" x2="152.346" y2="399.954" gradientUnits="userSpaceOnUse">
<stop stop-color="#F4CD79"/>
<stop offset="1" stop-color="#C7983F"/>
</linearGradient>
</defs>
</svg>
