<svg width="250" height="327" viewBox="0 0 250 327" fill="none" xmlns="http://www.w3.org/2000/svg">
<g clip-path="url(#clip0_4228_70)">
<path d="M178.504 242.462C178.504 249.084 184.107 254.687 190.729 254.687C197.351 254.687 202.954 249.084 202.954 242.462V230.237H178.504V242.462Z" fill="url(#paint0_linear_4228_70)"/>
<path d="M201.935 159.944L171.882 155.869L128.585 208.334C127.566 209.863 126.038 210.372 124.51 210.372C122.982 210.372 121.454 209.863 120.435 208.334L77.1383 155.869L47.0852 159.944C20.0883 164.528 0.222656 183.375 0.222656 205.278V311.228C82.7414 331.094 166.788 331.094 249.307 311.228V205.278C248.798 183.375 228.932 164.019 201.935 159.944ZM213.651 242.462C213.651 255.197 203.463 265.384 190.729 265.384C177.995 265.384 167.807 255.197 167.807 242.462V225.144C167.807 222.088 170.354 220.05 172.901 220.05H208.048C211.104 220.05 213.141 222.597 213.141 225.144V242.462H213.651ZM124.001 134.475C150.488 134.475 175.448 82.5187 175.448 50.9375C175.448 22.9219 152.526 0 124.001 0C95.4758 0 72.5539 22.9219 72.5539 51.4469C72.5539 82.5188 97.5133 134.475 124.001 134.475Z" fill="url(#paint1_linear_4228_70)"/>
</g>
<defs>
<linearGradient id="paint0_linear_4228_70" x1="190.729" y1="230.237" x2="190.729" y2="254.687" gradientUnits="userSpaceOnUse">
<stop stop-color="#F4CD79"/>
<stop offset="1" stop-color="#C7983F"/>
</linearGradient>
<linearGradient id="paint1_linear_4228_70" x1="124.765" y1="0" x2="124.765" y2="326.127" gradientUnits="userSpaceOnUse">
<stop stop-color="#F4CD79"/>
<stop offset="1" stop-color="#C7983F"/>
</linearGradient>
<clipPath id="clip0_4228_70">
<rect width="250" height="327" fill="white"/>
</clipPath>
</defs>
</svg>
