<svg width="171" height="100" viewBox="0 0 171 100" fill="none" xmlns="http://www.w3.org/2000/svg">
<g clip-path="url(#clip0_4176_609)">
<path d="M150.572 20.2056C150.704 20.3255 150.827 20.4518 150.966 20.5667C153.166 22.3874 155.841 23.25 158.491 23.2161C161.763 23.1739 164.996 21.761 167.248 19.0507C171.323 14.1439 170.642 6.86819 165.726 2.80049C160.812 -1.26623 153.523 -0.587297 149.446 4.319C147.329 6.8677 146.506 10.0541 146.883 13.0999C146.93 13.4758 146.996 13.8481 147.078 14.2186C147.582 16.4582 148.757 18.5589 150.572 20.2056Z" fill="url(#paint0_linear_4176_609)"/>
<path d="M92.0659 13.1851C90.1437 14.0787 88.3043 15.0023 86.5293 15.943C96.9173 21.6698 104.737 28.0278 110.167 33.2568C113.473 36.4407 115.891 39.2026 117.457 41.1318C118.24 42.0957 118.81 42.8518 119.171 43.3485C119.352 43.5965 119.481 43.7798 119.558 43.8913C119.597 43.9463 119.622 43.9842 119.635 44.0038L119.637 44.0048C119.795 44.2445 119.969 44.4671 120.153 44.6773C121.187 48.3373 124.816 62.5192 124.802 79.0578C124.803 83.5499 124.538 88.2135 123.899 92.8831C123.439 96.2428 125.796 99.3388 129.163 99.7986C129.445 99.8375 129.725 99.8561 130.003 99.8561C133.032 99.8561 135.671 97.6233 136.092 94.5445C136.817 89.2418 137.107 84.0299 137.108 79.0583C137.099 68.7289 135.858 59.4247 134.559 52.4978L148.578 44.781C147.909 44.5427 147.224 44.2956 146.511 44.0323C143.965 43.0851 142.666 40.2515 143.613 37.7136C144.326 35.7996 146.18 34.513 148.227 34.513C148.812 34.513 149.39 34.6166 149.943 34.8225C155.044 36.7281 157.955 37.9587 160.038 38.4736L160.543 38.1955C160.798 38.4819 161.057 38.7792 161.309 39.0862C161.385 39.1786 161.457 39.2724 161.531 39.3657C161.351 39.3328 161.164 39.296 160.969 39.2562C160.466 39.1525 159.913 39.0263 159.309 38.8745C156.897 38.2697 153.679 37.2675 149.599 35.7436C147.56 34.9861 145.293 36.0222 144.535 38.056C143.776 40.0899 144.814 42.3522 146.852 43.1107C147.86 43.4831 148.815 43.8265 149.732 44.1463C155.429 46.1374 159.413 47.142 162.489 47.427C162.528 47.4304 162.569 47.4358 162.608 47.4388C162.618 47.4397 162.628 47.4417 162.638 47.4427C163.09 47.4771 163.529 47.4962 163.962 47.4962C165.523 47.4781 167.035 47.2978 168.574 46.2936C169.326 45.7925 170.018 45.0335 170.431 44.1762C170.853 43.32 171.001 42.4317 170.999 41.6752C170.946 39.631 170.221 38.3208 169.516 37.0612C168.413 35.2184 167.02 33.6076 165.87 32.3534C165.019 31.4332 164.305 30.7371 163.972 30.4178L159.218 24.1728C155.984 24.3997 152.841 23.3966 150.337 21.3244C150.081 21.1122 149.837 20.8877 149.6 20.6573C149.148 20.2186 148.726 19.7514 148.347 19.2532C147.321 17.9057 146.614 16.4102 146.204 14.8593C146.056 14.3002 145.947 13.7353 145.878 13.1659C144.932 13.2194 143.712 13.2656 142.301 13.2651C138.712 13.2691 133.899 12.9571 129.397 11.7938C124.874 10.6388 120.791 8.63542 118.249 5.64655C116.833 3.99736 114.348 3.80724 112.696 5.22013C111.045 6.63301 110.854 9.11343 112.27 10.7611C116.368 15.5038 121.999 17.997 127.431 19.4045C131.158 20.3605 134.852 20.811 138.103 21.0016L124.966 30.9646C119.758 25.0006 110.33 15.7284 96.1558 7.29868C95.9525 9.76878 94.4709 12.0655 92.0659 13.1851Z" fill="url(#paint1_linear_4176_609)"/>
<path d="M76.3747 4.13358C76.1601 4.59242 76.0149 5.06453 75.9199 5.54008C78.5696 4.01125 81.3738 2.51485 84.3405 1.07887C81.3064 -0.200395 77.7786 1.12996 76.3747 4.13358Z" fill="url(#paint2_linear_4176_609)"/>
<path d="M21.2672 44.1458C22.1828 43.8255 23.1392 43.4821 24.1472 43.1102C26.1856 42.3517 27.2227 40.0894 26.4642 38.0555C25.7056 36.0217 23.4389 34.9856 21.3996 35.7431C17.32 37.267 14.1024 38.2692 11.6904 38.8745C11.1761 39.0037 10.6981 39.1147 10.2571 39.2085C10.1803 39.2247 10.1045 39.2405 10.0297 39.2562C9.83473 39.296 9.64769 39.3323 9.46753 39.3657C9.54186 39.2724 9.61274 39.1786 9.68953 39.0862C9.72497 39.0425 9.76238 39.0002 9.7988 38.9565C10.0164 38.6951 10.2369 38.4407 10.4554 38.195L10.961 38.4731C13.0436 37.9587 15.9546 36.7281 21.0561 34.822C21.6088 34.6161 22.1867 34.5125 22.772 34.5125C24.8186 34.5125 26.6724 35.7986 27.3856 37.7131C28.3327 40.251 27.0337 43.0851 24.4879 44.0318C23.7746 44.2956 23.0899 44.5427 22.4205 44.7805L36.4372 52.4964C35.1392 59.4237 33.8978 68.7279 33.8889 79.0578C33.8889 84.0289 34.1793 89.2413 34.9064 94.5465C35.3282 97.6238 37.9665 99.8546 40.9947 99.8551C41.2724 99.8551 41.5544 99.836 41.8379 99.7976C45.2038 99.3368 47.5601 96.2409 47.0989 92.8801C46.4575 88.214 46.1941 83.5514 46.1941 79.0578C46.1922 69.3351 47.436 60.4141 48.6814 53.98C49.3035 50.7632 49.9242 48.1658 50.383 46.3948C50.5686 45.679 50.7251 45.1057 50.8482 44.6739C51.0308 44.4646 51.204 44.243 51.3616 44.0043V44.0033C51.7381 43.4305 62.542 27.7399 85.4956 15.385C87.4606 14.3277 89.5043 13.2912 91.6484 12.2944C93.8837 11.2534 95.191 9.04219 95.1945 6.73323C95.1954 5.86122 95.0168 4.97596 94.623 4.13343C93.1857 1.05957 89.524 -0.268333 86.4456 1.16519C86.1276 1.31355 85.817 1.46486 85.502 1.6147C82.0569 3.25504 78.8239 4.9735 75.8031 6.7347C61.0939 15.3118 51.3581 24.8669 46.0332 30.9645L32.8966 21.0026C36.1468 20.811 39.84 20.3605 43.5656 19.4055C48.9984 17.9975 54.6304 15.5043 58.7287 10.7611C60.1449 9.11342 59.9534 6.63301 58.3029 5.21963C56.6515 3.80772 54.1663 3.99784 52.7501 5.64605C50.2073 8.63591 46.1242 10.6383 41.6002 11.7933C37.0988 12.9566 32.2867 13.2686 28.6989 13.2656C27.2867 13.2656 26.0674 13.2194 25.1214 13.1654C24.8629 15.3167 24.0473 17.4203 22.6524 19.2527C22.0745 20.0122 21.4046 20.7088 20.6623 21.3239C18.1578 23.3961 15.0149 24.3992 11.781 24.1723L7.02559 30.4188C6.69137 30.7391 5.97911 31.4342 5.12953 32.3529C5.04979 32.4403 4.96562 32.5337 4.88341 32.6245C3.78378 33.837 2.50891 35.3467 1.4831 37.0607C0.77774 38.3203 0.0526879 39.6305 1.9458e-05 41.6747C-0.00194945 42.4312 0.145227 43.3195 0.568051 44.1757C0.981522 45.0325 1.67261 45.792 2.42424 46.2931C3.96344 47.2973 5.47556 47.4776 7.03691 47.4957C7.46958 47.4957 7.90815 47.4766 8.361 47.4422C8.37134 47.4412 8.38119 47.4392 8.39054 47.4383C8.42992 47.4348 8.47077 47.4294 8.50966 47.4265C11.3542 47.1627 14.977 46.2838 20.0115 44.5776C20.4211 44.4391 20.8395 44.2951 21.2672 44.1458Z" fill="url(#paint3_linear_4176_609)"/>
<path d="M20.035 20.5671C22.3962 18.6128 23.7691 15.9167 24.1181 13.0998C24.1584 12.7741 24.183 12.4479 24.1953 12.1202C24.3002 9.38087 23.4462 6.59489 21.555 4.31884C17.4779 -0.586965 10.1895 -1.26639 5.27507 2.80033C0.358702 6.86803 -0.32205 14.1437 3.75311 19.0505C5.73383 21.4346 8.47505 22.8112 11.3314 23.1393C11.7228 23.184 12.1156 23.2111 12.5094 23.2165C15.16 23.2509 17.8343 22.3877 20.035 20.5671Z" fill="url(#paint4_linear_4176_609)"/>
</g>
<defs>
<linearGradient id="paint0_linear_4176_609" x1="158.352" y1="0.144531" x2="158.352" y2="23.2171" gradientUnits="userSpaceOnUse">
<stop stop-color="#F4CD79"/>
<stop offset="1" stop-color="#C7983F"/>
</linearGradient>
<linearGradient id="paint1_linear_4176_609" x1="128.764" y1="4.27344" x2="128.764" y2="99.8561" gradientUnits="userSpaceOnUse">
<stop stop-color="#F4CD79"/>
<stop offset="1" stop-color="#C7983F"/>
</linearGradient>
<linearGradient id="paint2_linear_4176_609" x1="80.1302" y1="0.59375" x2="80.1302" y2="5.54008" gradientUnits="userSpaceOnUse">
<stop stop-color="#F4CD79"/>
<stop offset="1" stop-color="#C7983F"/>
</linearGradient>
<linearGradient id="paint3_linear_4176_609" x1="47.5972" y1="0.587891" x2="47.5972" y2="99.8551" gradientUnits="userSpaceOnUse">
<stop stop-color="#F4CD79"/>
<stop offset="1" stop-color="#C7983F"/>
</linearGradient>
<linearGradient id="paint4_linear_4176_609" x1="12.6479" y1="0.144531" x2="12.6479" y2="23.2175" gradientUnits="userSpaceOnUse">
<stop stop-color="#F4CD79"/>
<stop offset="1" stop-color="#C7983F"/>
</linearGradient>
<clipPath id="clip0_4176_609">
<rect width="171" height="100" fill="white"/>
</clipPath>
</defs>
</svg>
