<svg width="72" height="96" viewBox="0 0 72 96" fill="none" xmlns="http://www.w3.org/2000/svg">
<path d="M31.368 23.4C37.8297 23.4 43.068 18.1617 43.068 11.7C43.068 5.23827 37.8297 0 31.368 0C24.9062 0 19.668 5.23827 19.668 11.7C19.668 18.1617 24.9062 23.4 31.368 23.4Z" fill="url(#paint0_linear_4235_17)"/>
<path d="M56.1685 64.7998L41.9685 55.7998H28.0685L30.7685 59.0998L28.1685 60.8998L26.3685 57.0998L24.6685 60.7998L21.8685 59.6998L24.3685 55.8998H20.6685L6.46851 64.8998C4.26851 66.2998 3.16851 68.6998 3.46851 71.2998L5.56851 89.1998C5.96851 92.7998 9.26851 95.3998 12.8685 94.9998C16.4685 94.5998 19.0685 91.2998 18.6685 87.6998L17.0685 73.8998L31.3685 64.8998L45.6685 73.8998L44.0685 87.6998C43.6685 91.2998 46.2685 94.5998 49.8685 94.9998C50.1685 94.9998 50.3685 94.9998 50.6685 94.9998C53.9685 94.9998 56.8685 92.4998 57.2685 89.0998L59.3685 71.1998C59.4685 68.6998 58.3685 66.1998 56.1685 64.7998Z" fill="url(#paint1_linear_4235_17)"/>
<path d="M65.6679 37.6004H55.7679L45.1679 29.7004C42.2679 27.5004 38.6679 26.4004 35.0679 26.4004H25.8679C23.4679 26.4004 21.0679 26.9004 18.8679 27.9004L3.36786 34.9004C1.86786 35.6004 0.767857 36.8004 0.267857 38.4004C-0.232143 39.9004 -0.0321432 41.6004 0.867857 43.0004L6.86786 52.9004C7.96786 54.7004 9.76786 55.6004 11.6679 55.6004C12.6679 55.6004 13.6679 55.3004 14.5679 54.8004C17.2679 53.2004 18.0679 49.7004 16.4679 47.1004L13.7679 42.5004L21.0679 39.2004V52.3004H41.5679V41.1004L50.4679 47.8004C51.4679 48.5004 52.6679 48.9004 53.8679 48.9004H65.6679C68.7679 48.9004 71.2679 46.4004 71.2679 43.3004C71.2679 40.1004 68.7679 37.6004 65.6679 37.6004Z" fill="url(#paint2_linear_4235_17)"/>
<defs>
<linearGradient id="paint0_linear_4235_17" x1="31.368" y1="0" x2="31.368" y2="23.4" gradientUnits="userSpaceOnUse">
<stop stop-color="#F4CD79"/>
<stop offset="1" stop-color="#C7983F"/>
</linearGradient>
<linearGradient id="paint1_linear_4235_17" x1="31.3973" y1="55.7998" x2="31.3973" y2="95.0404" gradientUnits="userSpaceOnUse">
<stop stop-color="#F4CD79"/>
<stop offset="1" stop-color="#C7983F"/>
</linearGradient>
<linearGradient id="paint2_linear_4235_17" x1="35.6339" y1="26.4004" x2="35.6339" y2="55.6004" gradientUnits="userSpaceOnUse">
<stop stop-color="#F4CD79"/>
<stop offset="1" stop-color="#C7983F"/>
</linearGradient>
</defs>
</svg>
