<svg width="51" height="44" viewBox="0 0 51 44" fill="none" xmlns="http://www.w3.org/2000/svg">
<g clip-path="url(#clip0_4185_652)">
<path d="M48.02 34.9452C46.76 34.0036 45.11 33.5812 43.45 33.8188L35.14 35.1124V27.342C38.1 23.6724 41.02 14.5116 39.81 10.6924C38.97 8.04357 35.38 4.13637 32.51 1.32037C31.33 0.158769 29.35 -0.0260306 27.9 0.897969C27.12 1.39077 26.61 2.15637 26.49 2.99237C26.37 3.81957 26.65 4.67317 27.26 5.31557C29.67 7.87637 31.07 10.0588 31.18 11.4756C31.45 14.7668 29.29 20.8388 27.09 21.8244H24.83H22.57C20.37 20.8388 18.21 14.7668 18.48 11.4756C18.6 10.0588 19.99 7.86757 22.4 5.31557C23.01 4.67317 23.29 3.82837 23.17 2.99237C23.05 2.15637 22.54 1.39077 21.76 0.897969C20.32 -0.0260306 18.34 0.158769 17.15 1.32037C14.28 4.13637 10.69 8.04357 9.85 10.6924C8.64 14.5116 11.56 23.6724 14.52 27.342V35.0596L6.5 33.81C4.86 33.5812 3.21 33.9948 1.95 34.9452C0.72 35.8868 0 37.2684 0 38.7204C0 41.466 2.53 43.6924 5.65 43.6924H30.11H30.76H35.16H44.36C47.48 43.6924 50.01 41.466 50.01 38.7204C50 37.2684 49.28 35.8868 48.02 34.9452ZM16.35 26.5148C13.69 23.4524 10.75 14.5292 11.81 11.1588C12.37 9.37237 14.87 6.21317 18.67 2.49077C19.17 1.99797 20 1.92757 20.61 2.31477C20.94 2.52597 21.16 2.84277 21.21 3.20357C21.26 3.55557 21.15 3.90757 20.89 4.18037C19 6.18677 16.7 9.05557 16.51 11.3436C16.23 14.7756 18.36 22.2732 22.02 23.5228C22.13 23.558 22.26 23.5844 22.38 23.5844H24.85H27.32C27.44 23.5844 27.57 23.5668 27.68 23.5228C31.34 22.2732 33.47 14.7756 33.19 11.3436C33 9.05557 30.7 6.18677 28.81 4.18037C28.55 3.90757 28.44 3.55557 28.49 3.20357C28.54 2.84277 28.75 2.52597 29.09 2.31477C29.7 1.92757 30.53 1.99797 31.03 2.49077C34.82 6.21317 37.32 9.37237 37.89 11.1588C38.96 14.5292 36.01 23.4524 33.35 26.5148C33.22 26.6644 33.14 26.858 33.14 27.0516V35.4204L25 36.6876L16.55 35.3764V27.0516C16.55 26.858 16.48 26.6644 16.35 26.5148ZM2 38.7204C2 37.7788 2.47 36.89 3.28 36.2828C3.95 35.7812 4.79 35.5084 5.65 35.5084C5.83 35.5084 6.02 35.5172 6.2 35.5436L24.77 38.4388H24.78L29.11 39.1164V41.9412H5.65C3.64 41.9324 2 40.4892 2 38.7204ZM31.11 41.9324V39.2572H35.15C35.99 39.2572 36.67 39.8556 36.67 40.5948C36.67 41.334 35.99 41.9324 35.15 41.9324H31.11ZM44.35 41.9324H38.31C38.53 41.5276 38.67 41.0788 38.67 40.5948C38.67 38.8876 37.09 37.4972 35.15 37.4972H31.29L43.79 35.5524C44.84 35.4028 45.92 35.6756 46.73 36.2828C47.53 36.89 48 37.7788 48 38.7204C48 40.4892 46.36 41.9324 44.35 41.9324Z" fill="url(#paint0_linear_4185_652)"/>
<path d="M13.5 6L19.5 1.5L22 2V4.5L18 9.5V16L21.5 22.5H27.5L31 18L32 10L27 3.5L29.5 1L34 4C34 4 39.5 11.5 39.5 13C39.5 14.5 38 20 38 20L34.5 26.5L34 32.5L34.5 36L43 35L47.5 35.5L49 39L46.5 42.5L36.5 43L10.5 42.5H3L1.5 40V36L5.5 35L15 36L16 35L15 27L12 20L10.5 11.5L13.5 6Z" fill="url(#paint1_linear_4185_652)" stroke="url(#paint2_linear_4185_652)" stroke-width="0.5"/>
<path d="M20 14C20 16.7534 22.2463 19 25 19C27.7537 19 30 16.7534 30 14C30 11.239 27.7537 9 25 9C22.2463 9 20 11.239 20 14ZM25 10.5129C26.8386 10.5129 28.3361 12.0787 28.3361 14C28.3361 15.9213 26.8386 17.4871 25 17.4871C23.1614 17.4871 21.6639 15.9213 21.6639 14C21.6639 12.0711 23.1614 10.5129 25 10.5129Z" fill="url(#paint3_linear_4185_652)"/>
<circle cx="25" cy="14" r="5" fill="url(#paint4_linear_4185_652)"/>
</g>
<defs>
<linearGradient id="paint0_linear_4185_652" x1="25.005" y1="0.310547" x2="25.005" y2="43.6924" gradientUnits="userSpaceOnUse">
<stop stop-color="#F4CD79"/>
<stop offset="1" stop-color="#C7983F"/>
</linearGradient>
<linearGradient id="paint1_linear_4185_652" x1="25.25" y1="1" x2="25.25" y2="43" gradientUnits="userSpaceOnUse">
<stop stop-color="#F4CD79"/>
<stop offset="1" stop-color="#C7983F"/>
</linearGradient>
<linearGradient id="paint2_linear_4185_652" x1="25.25" y1="1" x2="25.25" y2="43" gradientUnits="userSpaceOnUse">
<stop stop-color="#F4CD79"/>
<stop offset="1" stop-color="#C7983F"/>
</linearGradient>
<linearGradient id="paint3_linear_4185_652" x1="25" y1="9" x2="25" y2="19" gradientUnits="userSpaceOnUse">
<stop stop-color="#F4CD79"/>
<stop offset="1" stop-color="#C7983F"/>
</linearGradient>
<linearGradient id="paint4_linear_4185_652" x1="25" y1="9" x2="25" y2="19" gradientUnits="userSpaceOnUse">
<stop stop-color="#F4CD79"/>
<stop offset="1" stop-color="#C7983F"/>
</linearGradient>
<clipPath id="clip0_4185_652">
<rect width="51" height="44" fill="white"/>
</clipPath>
</defs>
</svg>
