<svg width="53" height="54" viewBox="0 0 53 54" fill="none" xmlns="http://www.w3.org/2000/svg">
<path d="M15 18.6774C15 14.5417 11.6357 11.1774 7.5 11.1774C3.3643 11.1774 0 14.5417 0 18.6774C0 22.8131 3.3643 26.1774 7.5 26.1774C11.6357 26.1774 15 22.8131 15 18.6774ZM51.8926 47.9869C49.3574 41.1451 44.8662 29.1842 43.2774 25.9537C41.9327 23.2203 40.4317 20.6822 36.9083 19.6715C36.8302 19.6481 29.9894 17.6129 27.4386 16.8219C27.8732 14.944 30.5118 9.90882 33.0382 5.81992C33.0655 5.77602 33.09 5.73013 33.1124 5.68423C34.0792 3.68033 33.4991 1.56513 31.7022 0.538725C29.962 -0.454475 27.2266 -0.183975 25.587 2.27702C23.5333 5.35903 19.3751 12.6657 17.8409 16.443C16.3692 20.0641 13.9073 26.1246 11.8565 33.3688L8.5782 45.6549C7.7628 48.5641 9.335 50.7809 11.2286 51.3903C13.0362 51.9704 15.3624 51.1813 16.4815 48.1051C16.9795 46.7389 17.4698 44.9694 17.9893 43.0953C18.9385 39.6724 20.9043 32.5836 22.5948 32.3307L26.5313 32.3795L20.9483 48.4059C20.2256 50.4821 21.3165 52.7907 23.379 53.5514C25.3429 54.277 27.5772 53.358 28.464 51.4596C30.4777 47.1432 35.1632 37.0875 36.4611 34.2311C36.4855 34.279 36.509 34.3249 36.5314 34.3688C36.6691 34.6364 36.8078 34.9069 36.9513 35.1618L43.6691 51.2233C44.3654 52.8893 46.0148 53.9352 47.7609 53.9352C48.1183 53.9352 48.4797 53.8913 48.838 53.7995C50.0519 53.4909 51.0812 52.6784 51.6632 51.57C52.2432 50.4645 52.3272 49.1588 51.8926 47.9869ZM25.7451 50.191C25.5097 50.6959 24.9385 50.9273 24.418 50.7369C23.878 50.5377 23.5928 49.9351 23.7823 49.3922L29.6899 32.4316C30.9242 32.4835 32.5391 32.6092 33.8266 32.7749C32.7124 35.2437 27.816 45.7513 25.7451 50.191ZM49.0068 50.1764C48.8173 50.5377 48.4941 50.7916 48.0966 50.8932C47.4208 51.0661 46.706 50.7106 46.4364 50.0651L39.6844 33.9225C39.661 33.8659 39.6336 33.8112 39.6033 33.7584C39.4646 33.5152 39.3318 33.2545 39.2 32.9977C38.7085 32.0416 38.1607 30.9974 37.2514 30.5925C34.9791 29.4342 29.0438 29.4054 28.6518 29.405L22.5457 29.3297C22.5027 29.3297 22.4568 29.3297 22.4139 29.3336C18.6121 29.6227 16.826 36.0641 15.0985 42.2936C14.5956 44.109 14.12 45.8239 13.663 47.0797C13.2792 48.1344 12.6855 48.7067 12.1474 48.5338C11.6669 48.3795 11.1386 47.6354 11.4716 46.4459L14.7489 34.1637C16.7489 27.1012 19.1718 21.1364 20.62 17.5719C22.0643 14.0172 26.1425 6.85223 28.0829 3.94103C28.7948 2.87172 29.7489 2.87953 30.2147 3.14413C30.6122 3.37073 30.6874 3.76522 30.4393 4.31792C25.8358 11.7779 23.8514 16.4683 24.5409 18.2574C24.7694 18.8492 25.2411 19.2877 25.7802 19.442C27.1357 19.8941 35.6894 22.4391 36.0663 22.5504C38.2372 23.1734 39.2538 24.5719 40.5858 27.2779C42.1717 30.5035 47.0546 43.564 49.0799 49.0299C49.2207 49.4098 49.1943 49.817 49.0068 50.1764Z" fill="url(#paint0_linear_4247_50)"/>
<path d="M30.0837 1.46763L27.0837 2.96763L19.0837 16.9676L14.0837 30.9676L10.0837 44.9676L11.0837 49.9676H14.0837L19.0837 33.4676L22.5837 30.9676L28.5837 31.9676L25.5837 40.4676L22.0837 50.4676L25.5837 52.4676L35.5837 31.9676L39.0837 34.9676L43.0837 47.4676L48.0837 52.9676L50.5837 50.4676L48.0837 40.4676L39.0837 22.4676L27.0837 18.4676L26.0837 17.9676L27.0837 13.9676L28.5837 8.96763L32.0837 2.96763L30.0837 1.46763Z" fill="url(#paint1_linear_4247_50)"/>
<defs>
<linearGradient id="paint0_linear_4247_50" x1="26.0837" y1="0" x2="26.0837" y2="53.9352" gradientUnits="userSpaceOnUse">
<stop stop-color="#F4CD79"/>
<stop offset="1" stop-color="#C7983F"/>
</linearGradient>
<linearGradient id="paint1_linear_4247_50" x1="26.0837" y1="0" x2="26.0837" y2="53.9352" gradientUnits="userSpaceOnUse">
<stop stop-color="#F4CD79"/>
<stop offset="1" stop-color="#C7983F"/>
</linearGradient>
</defs>
</svg>
