<svg width="54" height="54" viewBox="0 0 54 54" fill="none" xmlns="http://www.w3.org/2000/svg">
<g clip-path="url(#clip0_4247_44)">
<path d="M15.916 18.7097C15.916 14.574 12.5517 11.2097 8.41602 11.2097C4.28032 11.2097 0.916016 14.574 0.916016 18.7097C0.916016 22.8454 4.28032 26.2097 8.41602 26.2097C12.5517 26.2097 15.916 22.8454 15.916 18.7097ZM8.41602 23.2097C5.93462 23.2097 3.91602 21.1911 3.91602 18.7097C3.91602 16.2283 5.93462 14.2097 8.41602 14.2097C10.8974 14.2097 12.916 16.2283 12.916 18.7097C12.916 21.1911 10.8974 23.2097 8.41602 23.2097ZM52.8086 48.0191C50.2734 41.1773 45.7822 29.2165 44.1934 25.986C42.8487 23.2526 41.3477 20.7145 37.8243 19.7038C37.7462 19.6804 30.9054 17.6452 28.3546 16.8542C28.7892 14.9763 31.4278 9.94105 33.9542 5.85215C33.9815 5.80825 34.006 5.76235 34.0284 5.71645C34.9952 3.71255 34.4151 1.59735 32.6182 0.570952C30.878 -0.422248 28.1426 -0.151748 26.503 2.30925C24.4493 5.39125 20.2911 12.698 18.7569 16.4753C17.2852 20.0964 14.8233 26.1569 12.7725 33.4011L9.49422 45.6872C8.67882 48.5964 10.251 50.8132 12.1446 51.4226C13.9522 52.0027 16.2784 51.2136 17.3975 48.1374C17.8955 46.7712 18.3858 45.0017 18.9053 43.1276C19.8545 39.7047 21.8203 32.6158 23.5108 32.3629L27.4473 32.4118L21.8643 48.4382C21.1416 50.5144 22.2325 52.823 24.295 53.5837C26.2589 54.3093 28.4932 53.3903 29.38 51.4919C31.3937 47.1755 36.0792 37.1198 37.3771 34.2634C37.4015 34.3113 37.425 34.3572 37.4474 34.4011C37.5851 34.6687 37.7238 34.9391 37.8673 35.194L44.5851 51.2556C45.2814 52.9216 46.9308 53.9675 48.6769 53.9675C49.0343 53.9675 49.3957 53.9236 49.754 53.8318C50.9679 53.5232 51.9972 52.7107 52.5792 51.6023C53.1592 50.4968 53.2432 49.191 52.8086 48.0191ZM26.6611 50.2233C26.4257 50.7282 25.8545 50.9595 25.334 50.7691C24.794 50.5699 24.5088 49.9673 24.6983 49.4244L30.6059 32.4639C31.8402 32.5158 33.4551 32.6415 34.7426 32.8072C33.6284 35.276 28.732 45.7836 26.6611 50.2233ZM49.9228 50.2087C49.7333 50.57 49.4101 50.8238 49.0126 50.9254C48.3368 51.0983 47.622 50.7429 47.3524 50.0974L40.6004 33.9548C40.577 33.8982 40.5496 33.8434 40.5193 33.7906C40.3806 33.5474 40.2478 33.2868 40.116 33.03C39.6245 32.0739 39.0767 31.0297 38.1674 30.6248C35.8951 29.4665 29.9598 29.4377 29.5678 29.4373C29.568 29.4373 29.5677 29.4373 29.5678 29.4373L23.4617 29.3619C23.4187 29.3619 23.3728 29.362 23.3299 29.3659C19.5281 29.655 17.742 36.0964 16.0145 42.3259C15.5116 44.1413 15.036 45.8561 14.579 47.1119C14.1952 48.1666 13.6015 48.739 13.0634 48.5661C12.5829 48.4118 12.0546 47.6676 12.3876 46.4781L15.6649 34.1959C17.6649 27.1334 20.0878 21.1687 21.536 17.6042C22.9803 14.0495 27.0585 6.88445 28.9989 3.97325C29.7108 2.90395 30.6649 2.91175 31.1307 3.17635C31.5282 3.40295 31.6034 3.79745 31.3553 4.35015C26.7518 11.8102 24.7674 16.5006 25.4569 18.2897C25.6854 18.8815 26.1571 19.32 26.6962 19.4743C28.0517 19.9264 36.6054 22.4714 36.9823 22.5827C39.1532 23.2057 40.1698 24.6042 41.5018 27.3102C43.0877 30.5358 47.9706 43.5963 49.9959 49.0622C50.1367 49.4421 50.1103 49.8493 49.9228 50.2087Z" fill="#DBDADB"/>
</g>
<defs>
<clipPath id="clip0_4247_44">
<rect width="54" height="54" fill="white"/>
</clipPath>
</defs>
</svg>
