<svg width="108" height="100" viewBox="0 0 108 100" fill="none" xmlns="http://www.w3.org/2000/svg">
<g clip-path="url(#clip0_4176_605)">
<path d="M8.41945 79.4073C13.2737 79.2266 17.1648 75.3407 17.3402 70.4981V44.2525C17.3402 43.1907 18.2029 42.3301 19.2672 42.3301C20.3308 42.3301 21.1935 43.1907 21.1935 44.2525V73.0832C21.0091 76.0839 21.973 79.0418 23.891 81.3601C25.958 83.4139 28.7576 84.5644 31.6749 84.5587C34.5643 84.5504 37.3285 83.3827 39.3444 81.3174C41.3596 79.2529 42.4569 76.4649 42.3877 73.5833V40.4085C42.3877 39.3467 43.2504 38.4861 44.3139 38.4861C45.3783 38.4861 46.241 39.3467 46.241 40.4085V76.1586C46.334 79.1059 47.5902 81.8963 49.7362 83.9239C51.7867 85.9999 54.5905 87.1635 57.5119 87.1528C63.7647 87.2161 68.9721 82.3849 69.3615 76.1586V36.5637C69.3615 35.5027 70.2242 34.6421 71.2877 34.6421C72.3521 34.6421 73.2148 35.5027 73.2148 36.5637V71.008C73.2148 74.7363 73.9449 77.135 75.5822 78.784C78.7325 81.9144 83.4616 82.8456 87.5676 81.1441C91.6736 79.4426 94.3498 75.4433 94.3506 71.008V20.6874C94.3539 13.1997 88.2731 7.1253 80.7674 7.11791C76.3206 7.11791 73.2148 10.5316 73.2148 15.4211C73.2148 15.4383 73.2049 15.4523 73.2049 15.4695C73.2049 15.4868 73.2148 15.4999 73.2148 15.5171V17.3435C73.2148 18.4045 72.3521 19.2651 71.2877 19.2651C70.2242 19.2651 69.3615 18.4045 69.3615 17.3435V15.5171C69.3615 15.4999 69.3705 15.4868 69.3705 15.4695C69.3705 15.4523 69.3615 15.4383 69.3615 15.4211V7.73299C69.3615 2.98317 64.5443 0.0449219 60.0934 0.0449219H54.9304C50.282 0.0490278 46.5151 3.80684 46.5102 8.44415L46.241 18.145V19.2651C46.241 20.3269 45.3783 21.1875 44.3139 21.1875C43.2504 21.1875 42.3877 20.3269 42.3877 19.2651V18.0932C42.3877 13.9224 40.1717 9.7129 35.2203 9.7129H29.0935C26.9713 9.61518 24.906 10.4126 23.4029 11.9096C21.9006 13.4075 21.098 15.4662 21.1935 17.5833V23.1091C21.1935 24.1709 20.3308 25.0316 19.2672 25.0316C18.2029 25.0316 17.3402 24.1709 17.3402 23.1091V22.7535C17.3451 21.2081 16.7286 19.725 15.6296 18.6352C14.2821 17.6941 12.6407 17.2704 11.005 17.4396C4.93083 17.4437 0.00660596 22.3544 2.05645e-05 28.4141V71.008C-0.00491848 73.2368 0.879994 75.376 2.46049 76.9527C4.04016 78.5286 6.18535 79.4122 8.41945 79.4073Z" fill="url(#paint0_linear_4176_605)"/>
<path d="M106.759 63.2802L100.871 49.397C100.205 48.2892 99.2925 47.3489 98.2043 46.6484V71.0077C98.2034 76.9975 94.5881 82.3977 89.0423 84.6946C83.4966 86.9907 77.1112 85.731 72.8587 81.5018C72.6661 81.3096 72.4883 81.1175 72.3171 80.9253C69.8739 86.957 64.0335 90.93 57.5123 90.9965C54.8362 90.9998 52.2094 90.2738 49.9177 88.8959C49.9177 88.9887 49.8848 89.088 49.8848 89.171C50.2354 95.0228 54.9473 99.6725 60.8165 99.9599C61.2248 99.9796 61.6331 99.9229 62.0208 99.794C65.6609 98.7338 69.4244 98.1541 73.2152 98.0703C79.0671 98.3577 84.8968 98.9991 90.6706 99.9919C95.4985 99.9188 99.7189 96.7276 101.096 92.1117L107.588 69.7595C108.179 67.6424 107.91 65.3775 106.842 63.4551C106.811 63.3984 106.783 63.3401 106.759 63.2802Z" fill="url(#paint1_linear_4176_605)"/>
</g>
<defs>
<linearGradient id="paint0_linear_4176_605" x1="47.1753" y1="0.0449219" x2="47.1753" y2="87.1534" gradientUnits="userSpaceOnUse">
<stop stop-color="#F4CD79"/>
<stop offset="1" stop-color="#C7983F"/>
</linearGradient>
<linearGradient id="paint1_linear_4176_605" x1="78.8899" y1="46.6484" x2="78.8899" y2="99.9919" gradientUnits="userSpaceOnUse">
<stop stop-color="#F4CD79"/>
<stop offset="1" stop-color="#C7983F"/>
</linearGradient>
<clipPath id="clip0_4176_605">
<rect width="108" height="100" fill="white"/>
</clipPath>
</defs>
</svg>
