<svg width="512" height="512" viewBox="0 0 512 512" fill="none" xmlns="http://www.w3.org/2000/svg">
<g clip-path="url(#clip0_4228_53)">
<path d="M414.458 512C418.732 512 423.076 511.09 427.205 509.165C438.699 503.81 445.227 492.152 444.624 480.223C427.345 487.411 405.139 495.92 390.162 499.764C395.924 507.547 405.02 512 414.458 512Z" fill="url(#paint0_linear_4228_53)"/>
<path d="M43.0221 472.427C38.0226 488.359 46.8848 505.327 62.8169 510.326C65.8306 511.272 68.8782 511.722 71.8774 511.722C83.6493 511.722 94.6231 504.775 99.5065 493.69C74.9226 485.631 56.2186 476.009 44.1564 468.813L43.0221 472.427Z" fill="url(#paint1_linear_4228_53)"/>
<path d="M418.56 143.645L460.513 139.613C471.15 138.59 478.946 129.138 477.923 118.5C476.9 107.863 467.442 100.055 456.81 101.09L417.355 104.883C417.225 111.002 417.024 128.538 418.56 143.645Z" fill="url(#paint2_linear_4228_53)"/>
<path d="M284.133 248.565L279.261 194.693C279.74 193.055 280.406 191.512 281.284 190.078C290.25 175.394 319.057 170.965 348.004 169.85C375.662 168.783 403.439 170.738 414.156 169.669C417.975 169.286 419.632 168.522 418.336 167.098C409.444 157.316 410.903 106.134 410.997 103.086C411 102.992 411.002 102.938 411.002 102.938C411.002 102.938 408.702 103.159 404.665 103.553C381.344 105.831 299.325 114.011 258.015 120.315C257.875 120.295 257.74 120.264 257.597 120.247C257.626 120.242 257.657 120.235 257.689 120.23L257.563 120.242C256.322 120.102 255.05 120.082 253.756 120.201L160.688 128.618C158.253 128.838 155.977 129.53 153.921 130.572L153.735 129.772C132.634 134.687 92.1491 158.155 89.4474 211.783C89.4377 211.929 89.4232 212.074 89.4184 212.221C89.4184 212.241 89.416 212.257 89.4135 212.274C89.4063 212.439 89.4208 212.601 89.416 212.765C89.4014 213.385 89.3918 214.006 89.4232 214.633C89.4498 215.179 89.52 215.716 89.5829 216.253C89.6119 216.49 89.6167 216.725 89.653 216.964C89.6554 216.984 89.6603 217.003 89.6651 217.022C89.7304 217.455 89.8296 217.874 89.9166 218.299C89.9844 218.631 90.0424 218.967 90.1246 219.294C90.2214 219.673 90.3423 220.043 90.456 220.416C90.5673 220.783 90.6737 221.156 90.8019 221.516C90.9156 221.833 91.0462 222.138 91.172 222.448C91.3364 222.854 91.5009 223.26 91.6871 223.655C91.8129 223.921 91.9508 224.179 92.0838 224.441C92.2991 224.859 92.5216 225.275 92.7611 225.679C92.9013 225.916 93.0465 226.146 93.194 226.376C93.4528 226.782 93.7213 227.181 94.0043 227.57C94.1639 227.791 94.326 228.006 94.4929 228.221C94.7831 228.596 95.0854 228.959 95.3975 229.314C95.5837 229.527 95.7724 229.74 95.9683 229.948C96.2779 230.277 96.5996 230.591 96.9261 230.901C97.1486 231.111 97.3663 231.324 97.5961 231.527C97.9129 231.808 98.2443 232.069 98.5757 232.333C98.8345 232.538 99.086 232.746 99.3521 232.94C99.6786 233.177 100.02 233.395 100.358 233.617C100.646 233.806 100.924 234.002 101.219 234.178C101.623 234.418 102.042 234.631 102.46 234.848C102.883 235.068 103.314 235.276 103.752 235.472C104.228 235.685 104.705 235.896 105.196 236.077C105.455 236.174 105.725 236.249 105.989 236.336C106.456 236.491 106.92 236.643 107.397 236.769C107.656 236.837 107.919 236.89 108.18 236.948C108.681 237.064 109.184 237.168 109.697 237.25C109.953 237.291 110.212 237.323 110.471 237.357C110.991 237.424 111.516 237.475 112.046 237.509C112.186 237.519 112.324 237.543 112.464 237.55C112.769 237.565 113.071 237.567 113.373 237.569C113.429 237.569 113.485 237.577 113.54 237.577C114.249 237.577 114.963 237.536 115.678 237.47C115.952 237.446 116.22 237.412 116.489 237.378C116.709 237.352 116.929 237.337 117.151 237.303L138.697 234.077L189 226.545C202.213 224.566 194.998 176.724 181.838 178.705L134.172 185.843L133.652 180.296L181.013 173.205C181.555 173.123 182.097 173.084 182.629 173.084C185.751 173.084 188.482 174.417 190.845 176.625L204.748 174.542C205.979 174.359 207.225 174.264 208.458 174.264C220.678 174.264 231.262 183.388 233.076 195.486C234.06 202.07 232.425 208.639 228.471 213.989C224.511 219.339 218.709 222.83 212.127 223.814L198.261 225.892C196.268 229.365 193.423 231.508 189.824 232.047L151.785 237.744L154.709 270.089C213.683 276.083 273.391 252.979 284.133 248.565Z" fill="url(#paint3_linear_4228_53)"/>
<path d="M230.802 100.226C256.08 83.9652 263.389 50.2925 247.129 25.0153C230.869 -0.261779 197.196 -7.57135 171.919 8.68897C146.642 24.9493 139.332 58.622 155.592 83.8991C171.853 109.176 205.525 116.486 230.802 100.226Z" fill="url(#paint4_linear_4228_53)"/>
<path d="M211.305 218.311C221.875 216.729 229.16 206.878 227.578 196.308C225.994 185.74 216.15 178.46 205.575 180.037L194.795 181.65C198.532 187.968 200.759 196.912 201.398 205.511C201.814 211.086 201.5 215.933 200.539 219.922L211.305 218.311Z" fill="url(#paint5_linear_4228_53)"/>
<path d="M203.911 283.934C194.602 284.983 184.932 285.615 175.08 285.615C168.787 285.615 162.42 285.329 156.037 284.768L157.455 300.444L101.512 322.977C93.1144 326.358 86.6734 333.329 83.962 341.968L83.5387 343.32L82.3753 345.882L33.9863 452.456C33.9863 452.456 62.7764 475.654 114.346 490.788C114.704 490.892 115.05 491 115.408 491.104C131.949 474.077 138.944 423.53 141.844 389.063C150.295 382.429 169.428 367.633 186.634 355.912C186.32 372.273 186.419 386.146 187.403 391.448L195.879 389.878L201.674 388.805C199.833 378.876 201.911 322.824 203.911 283.934Z" fill="url(#paint6_linear_4228_53)"/>
<path d="M236.503 278.443C229.027 280.105 221.04 281.614 212.676 282.814C211.704 301.574 210.703 324.527 210.137 344.414L212.096 343.626C216.841 341.715 220.825 338.728 223.907 335.068C224.927 335.854 226.008 336.577 227.143 337.238C227.818 342.769 230.253 349.488 237.768 352.243C238.032 352.34 238.351 352.447 238.656 352.551C240.197 366.427 240.119 379.082 237.045 387.69L250.711 392.571C251.025 391.688 251.296 390.757 251.565 389.821C260.56 358.385 243.036 298.705 236.503 278.443Z" fill="url(#paint7_linear_4228_53)"/>
<path d="M455.913 466.813C430.521 396.28 405.995 360.819 387.127 340.974C382.8 336.424 378.772 332.687 375.098 329.545C371.857 326.152 367.862 323.506 363.353 321.909L288.365 295.347L285.499 263.664C277.677 266.724 263.061 271.972 244.451 276.575C248.831 289.934 260.284 327.356 262.335 359.148C283.826 364.909 312.855 373.041 329.194 382.341C342.736 415.398 369.92 483.574 367.617 492.782C366.993 495.283 369.337 496.113 373.616 495.789C390.247 494.534 436.594 475.561 455.913 466.813Z" fill="url(#paint8_linear_4228_53)"/>
</g>
<defs>
<linearGradient id="paint0_linear_4228_53" x1="417.412" y1="480.223" x2="417.412" y2="512" gradientUnits="userSpaceOnUse">
<stop stop-color="#F4CD79"/>
<stop offset="1" stop-color="#C7983F"/>
</linearGradient>
<linearGradient id="paint1_linear_4228_53" x1="70.5667" y1="468.813" x2="70.5667" y2="511.722" gradientUnits="userSpaceOnUse">
<stop stop-color="#F4CD79"/>
<stop offset="1" stop-color="#C7983F"/>
</linearGradient>
<linearGradient id="paint2_linear_4228_53" x1="447.64" y1="100.998" x2="447.64" y2="143.645" gradientUnits="userSpaceOnUse">
<stop stop-color="#F4CD79"/>
<stop offset="1" stop-color="#C7983F"/>
</linearGradient>
<linearGradient id="paint3_linear_4228_53" x1="254.087" y1="102.938" x2="254.087" y2="271.075" gradientUnits="userSpaceOnUse">
<stop stop-color="#F4CD79"/>
<stop offset="1" stop-color="#C7983F"/>
</linearGradient>
<linearGradient id="paint4_linear_4228_53" x1="171.919" y1="8.68896" x2="230.802" y2="100.226" gradientUnits="userSpaceOnUse">
<stop stop-color="#F4CD79"/>
<stop offset="1" stop-color="#C7983F"/>
</linearGradient>
<linearGradient id="paint5_linear_4228_53" x1="211.294" y1="179.822" x2="211.294" y2="219.922" gradientUnits="userSpaceOnUse">
<stop stop-color="#F4CD79"/>
<stop offset="1" stop-color="#C7983F"/>
</linearGradient>
<linearGradient id="paint6_linear_4228_53" x1="118.949" y1="283.934" x2="118.949" y2="491.104" gradientUnits="userSpaceOnUse">
<stop stop-color="#F4CD79"/>
<stop offset="1" stop-color="#C7983F"/>
</linearGradient>
<linearGradient id="paint7_linear_4228_53" x1="232.108" y1="278.443" x2="232.108" y2="392.571" gradientUnits="userSpaceOnUse">
<stop stop-color="#F4CD79"/>
<stop offset="1" stop-color="#C7983F"/>
</linearGradient>
<linearGradient id="paint8_linear_4228_53" x1="350.182" y1="263.664" x2="350.182" y2="495.856" gradientUnits="userSpaceOnUse">
<stop stop-color="#F4CD79"/>
<stop offset="1" stop-color="#C7983F"/>
</linearGradient>
<clipPath id="clip0_4228_53">
<rect width="512" height="512" fill="white"/>
</clipPath>
</defs>
</svg>
