<svg width="152" height="181" viewBox="0 0 152 181" fill="none" xmlns="http://www.w3.org/2000/svg">
<g clip-path="url(#clip0_4239_98)">
<path d="M74.7042 87.0186C86.7373 87.0186 97.1571 82.7309 105.671 74.2714C114.184 65.8132 118.5 55.4641 118.5 43.5079C118.5 31.5559 114.184 21.2054 105.669 12.7445C97.1543 4.28767 86.736 0 74.7042 0C62.6697 0 52.2527 4.28767 43.739 12.7459C35.2254 21.204 30.9082 31.5545 30.9082 43.5079C30.9082 55.4641 35.2254 65.8145 43.7404 74.2727C52.2555 82.7295 62.6738 87.0186 74.7042 87.0186Z" fill="url(#paint0_linear_4239_98)"/>
<path d="M151.335 138.909C151.09 135.389 150.593 131.549 149.862 127.494C149.124 123.409 148.174 119.548 147.036 116.018C145.861 112.37 144.263 108.767 142.288 105.315C140.237 101.731 137.829 98.6109 135.127 96.0432C132.301 93.357 128.841 91.1974 124.84 89.622C120.853 88.055 116.435 87.2611 111.708 87.2611C109.852 87.2611 108.057 88.0178 104.59 90.2602C102.457 91.6425 99.9609 93.2413 97.1752 95.0095C94.7933 96.5173 91.5665 97.93 87.5809 99.209C83.6924 100.459 79.7442 101.093 75.8474 101.093C71.9506 101.093 68.0038 100.459 64.1111 99.209C60.1297 97.9314 56.9029 96.5187 54.5237 95.0109C51.7645 93.2592 49.2674 91.6604 47.1019 90.2588C43.6392 88.0164 41.8427 87.2598 39.9866 87.2598C35.2588 87.2598 30.8417 88.055 26.8561 89.6234C22.858 91.196 19.3968 93.3557 16.5681 96.0446C13.8671 98.6136 11.4574 101.733 9.40983 105.315C7.43575 108.767 5.83762 112.368 4.66121 116.019C3.52504 119.549 2.57477 123.409 1.83674 127.494C1.10565 131.544 0.60901 135.385 0.363464 138.913C0.122079 142.37 0 145.957 0 149.581C0 159.01 3.0173 166.644 8.96729 172.274C14.8437 177.83 22.6194 180.649 32.075 180.649H119.628C129.084 180.649 136.857 177.831 142.734 172.274C148.686 166.648 151.703 159.013 151.703 149.579C151.702 145.939 151.578 142.349 151.335 138.909Z" fill="url(#paint1_linear_4239_98)"/>
</g>
<defs>
<linearGradient id="paint0_linear_4239_98" x1="74.7042" y1="0" x2="74.7042" y2="87.0186" gradientUnits="userSpaceOnUse">
<stop stop-color="#F4CD79"/>
<stop offset="1" stop-color="#C7983F"/>
</linearGradient>
<linearGradient id="paint1_linear_4239_98" x1="75.8516" y1="87.2598" x2="75.8516" y2="180.649" gradientUnits="userSpaceOnUse">
<stop stop-color="#F4CD79"/>
<stop offset="1" stop-color="#C7983F"/>
</linearGradient>
<clipPath id="clip0_4239_98">
<rect width="152" height="181" fill="white"/>
</clipPath>
</defs>
</svg>
