<svg width="360" height="321" viewBox="0 0 360 321" fill="none" xmlns="http://www.w3.org/2000/svg">
<g clip-path="url(#clip0_4228_87)">
<path d="M153.448 16.1605L4.39957 274.3C1.70724 278.962 0.289561 284.25 0.289063 289.634C0.288564 295.017 1.70527 300.305 4.39674 304.968C7.08821 309.63 10.9596 313.501 15.6217 316.193C20.2838 318.884 25.5723 320.301 30.9556 320.3H329.028C334.411 320.301 339.699 318.884 344.361 316.193C349.024 313.501 352.895 309.63 355.586 304.968C358.278 300.305 359.695 295.017 359.694 289.634C359.694 284.25 358.276 278.962 355.584 274.3L206.552 16.1605C203.861 11.4997 199.99 7.62941 195.329 4.93855C190.668 2.24768 185.381 0.831055 180 0.831055C174.618 0.831055 169.331 2.24768 164.67 4.93855C160.009 7.62941 156.139 11.4997 153.448 16.1605Z" fill="url(#paint0_linear_4228_87)"/>
<path d="M181.943 95.7764H178.055C168.482 95.7764 160.723 103.536 160.723 113.108V195.952C160.723 205.525 168.482 213.284 178.055 213.284H181.943C191.515 213.284 199.275 205.525 199.275 195.952V113.108C199.275 103.536 191.515 95.7764 181.943 95.7764Z" fill="black"/>
<path d="M179.999 278.989C190.644 278.989 199.275 270.358 199.275 259.713C199.275 249.067 190.644 240.437 179.999 240.437C169.353 240.437 160.723 249.067 160.723 259.713C160.723 270.358 169.353 278.989 179.999 278.989Z" fill="black"/>
</g>
<defs>
<linearGradient id="paint0_linear_4228_87" x1="179.992" y1="0.831055" x2="179.992" y2="320.3" gradientUnits="userSpaceOnUse">
<stop stop-color="#F4CD79"/>
<stop offset="1" stop-color="#C7983F"/>
</linearGradient>
<clipPath id="clip0_4228_87">
<rect width="360" height="321" fill="white"/>
</clipPath>
</defs>
</svg>
