<svg width="428" height="398" viewBox="0 0 428 398" fill="none" xmlns="http://www.w3.org/2000/svg">
<g clip-path="url(#clip0_4228_94)">
<path d="M418.799 0.941406H9.19935C4.50602 0.941406 0.666016 4.78141 0.666016 9.47474C0.666016 42.4134 27.3753 69.1227 60.314 69.1227H120.133V101.208H111.599C91.29 101.208 73.9674 115.715 70.3834 135.683L38.2127 314.968C36.0793 327.256 39.322 339.715 47.3434 349.272C55.2794 358.829 67.0554 364.291 79.514 364.291H348.485C360.943 364.291 372.719 358.829 380.655 349.272C388.677 339.715 391.919 327.256 389.786 314.968L357.615 135.683C354.031 115.715 336.709 101.208 316.399 101.208H307.866V69.1227H367.685C400.623 69.1227 427.333 42.4134 427.333 9.47474C427.333 4.78141 423.493 0.941406 418.799 0.941406ZM213.999 307.971C172.527 307.971 138.821 274.179 138.821 232.707C138.821 191.235 172.527 157.528 213.999 157.528C255.471 157.528 289.178 191.235 289.178 232.707C289.178 274.179 255.471 307.971 213.999 307.971Z" fill="url(#paint0_linear_4228_94)"/>
<path d="M132.251 397.059C137.03 397.059 140.784 393.219 140.784 388.526C140.784 383.747 137.03 379.992 132.251 379.992H95.3868C90.6935 379.992 86.8535 383.747 86.8535 388.526C86.8535 393.219 90.6935 397.059 95.3868 397.059H132.251Z" fill="url(#paint1_linear_4228_94)"/>
<path d="M332.614 397.059C337.307 397.059 341.147 393.219 341.147 388.526C341.147 383.747 337.307 379.992 332.614 379.992H295.75C290.971 379.992 287.217 383.747 287.217 388.526C287.217 393.219 290.971 397.059 295.75 397.059H332.614Z" fill="url(#paint2_linear_4228_94)"/>
<path d="M230.385 204.291L208.027 226.648C204.699 229.976 204.699 235.352 208.027 238.68C209.734 240.387 211.867 241.155 214.086 241.155C216.305 241.155 218.438 240.302 220.145 238.68L242.502 216.323C245.83 212.995 245.83 207.619 242.502 204.291C239.174 200.963 233.713 200.963 230.385 204.291Z" fill="url(#paint3_linear_4228_94)"/>
</g>
<defs>
<linearGradient id="paint0_linear_4228_94" x1="213.999" y1="0.941406" x2="213.999" y2="364.291" gradientUnits="userSpaceOnUse">
<stop stop-color="#F4CD79"/>
<stop offset="1" stop-color="#C7983F"/>
</linearGradient>
<linearGradient id="paint1_linear_4228_94" x1="113.819" y1="379.992" x2="113.819" y2="397.059" gradientUnits="userSpaceOnUse">
<stop stop-color="#F4CD79"/>
<stop offset="1" stop-color="#C7983F"/>
</linearGradient>
<linearGradient id="paint2_linear_4228_94" x1="314.182" y1="379.992" x2="314.182" y2="397.059" gradientUnits="userSpaceOnUse">
<stop stop-color="#F4CD79"/>
<stop offset="1" stop-color="#C7983F"/>
</linearGradient>
<linearGradient id="paint3_linear_4228_94" x1="225.265" y1="201.795" x2="225.265" y2="241.155" gradientUnits="userSpaceOnUse">
<stop stop-color="#F4CD79"/>
<stop offset="1" stop-color="#C7983F"/>
</linearGradient>
<clipPath id="clip0_4228_94">
<rect width="428" height="398" fill="white"/>
</clipPath>
</defs>
</svg>
