<svg width="167" height="100" viewBox="0 0 167 100" fill="none" xmlns="http://www.w3.org/2000/svg">
<g clip-path="url(#clip0_4176_602)">
<path d="M0 59.3794V40.6114H9.72274L9.72124 59.3794H0ZM19.9487 80.5004C18.4874 80.5004 17.1137 79.9304 16.0804 78.8947C15.0472 77.8594 14.4784 76.483 14.4785 75.019L14.4796 61.7822C14.4796 61.7759 14.4805 61.7697 14.4805 61.7633C14.4805 61.7569 14.4796 61.7508 14.4796 61.7444L14.4825 24.9765C14.4829 21.9551 16.9369 19.4968 19.9527 19.4968H29.1536L29.1491 80.5005L19.9487 80.5004ZM48.4626 98.2422C47.4293 99.2772 46.056 99.847 44.5951 99.847H44.5943L39.3759 99.8461C36.3602 99.8457 33.9067 97.3871 33.9067 94.3655L33.9124 17.1296C33.9124 17.1239 33.9132 17.1186 33.9132 17.1129C33.9132 17.1072 33.9124 17.1019 33.9124 17.0962L33.9132 5.63406C33.9132 4.17001 34.4823 2.79363 35.5157 1.75859C36.549 0.723547 37.9223 0.153486 39.3834 0.153486H39.3841L44.6011 0.154408H44.6013C47.6172 0.154659 50.0707 2.6136 50.0705 5.63532L50.0686 38.2169C50.0686 38.2214 50.0679 38.2259 50.0679 38.2306C50.0679 38.2352 50.0685 38.2397 50.0686 38.2444L50.0653 94.3669C50.0651 95.8307 49.496 97.2071 48.4626 98.2422ZM54.8258 59.3829L54.8269 40.6149L112.174 40.6207L112.175 59.3888L54.8258 59.3829ZM127.624 99.8462L122.407 99.8464C119.39 99.8468 116.936 97.3882 116.936 94.3661L116.93 5.63482C116.93 2.61284 119.383 0.15424 122.4 0.153905L127.617 0.15332C129.079 0.15332 130.452 0.723044 131.485 1.75817C132.519 2.79355 133.088 4.16959 133.088 5.63398L133.093 82.8838C133.093 82.8842 133.093 82.8847 133.093 82.8852C133.093 82.8856 133.093 82.886 133.093 82.8865L133.094 94.3653C133.094 97.3872 130.641 99.8458 127.624 99.8462ZM147.052 80.5002L137.852 80.5009L137.847 19.4972L147.048 19.4965C148.509 19.4965 149.883 20.0662 150.916 21.1013C151.949 22.1364 152.518 23.5127 152.519 24.9768L152.52 38.2364C152.52 38.2378 152.519 38.239 152.519 38.2403C152.519 38.2417 152.52 38.243 152.52 38.2443L152.522 75.0193C152.522 78.0412 150.069 80.4998 147.052 80.5002ZM167 59.3922H157.28L157.278 40.6242H167V59.3922Z" fill="url(#paint0_linear_4176_602)"/>
</g>
<defs>
<linearGradient id="paint0_linear_4176_602" x1="83.5" y1="0.15332" x2="83.5" y2="99.847" gradientUnits="userSpaceOnUse">
<stop stop-color="#F4CD79"/>
<stop offset="1" stop-color="#C7983F"/>
</linearGradient>
<clipPath id="clip0_4176_602">
<rect width="167" height="100" fill="white"/>
</clipPath>
</defs>
</svg>
